  0
SECTION
  2
HEADER
  9
$ACADVER
  1
AC1009
  9
$EXTMIN
 10
0.0
 20
0.0
 30
0.0
  9
$EXTMAX
 10
1000.0
 20
1000.0
 30
0.0
  9
$FILLMODE
 70
 0
  9
$SPLFRAME
 70
 1
  0
ENDSEC
  0
SECTION
  2
TABLES
  0
TABLE
  2
LAYER
 70
1
  0
LAYER
  2
0
 70
     0
 62
     7
  6
CONTINUOUS
  0
ENDTAB
  0
ENDSEC
  0
SECTION
  2
ENTITIES
  0
LINE
  8
0
 62
     0
 10
296.846
 20
111.383
 30
0.0
 11
297.239
 21
111.368
 31
0.0
  0
LINE
  8
0
 62
     0
 10
297.239
 20
111.368
 30
0.0
 11
297.629
 21
111.321
 31
0.0
  0
LINE
  8
0
 62
     0
 10
297.629
 20
111.321
 30
0.0
 11
298.013
 21
111.245
 31
0.0
  0
LINE
  8
0
 62
     0
 10
298.013
 20
111.245
 30
0.0
 11
298.392
 21
111.139
 31
0.0
  0
LINE
  8
0
 62
     0
 10
298.392
 20
111.139
 30
0.0
 11
298.76
 21
111.002
 31
0.0
  0
LINE
  8
0
 62
     0
 10
298.76
 20
111.002
 30
0.0
 11
299.116
 21
110.839
 31
0.0
  0
LINE
  8
0
 62
     0
 10
299.116
 20
110.839
 30
0.0
 11
299.459
 21
110.647
 31
0.0
  0
LINE
  8
0
 62
     0
 10
299.459
 20
110.647
 30
0.0
 11
299.784
 21
110.428
 31
0.0
  0
LINE
  8
0
 62
     0
 10
299.784
 20
110.428
 30
0.0
 11
300.094
 21
110.185
 31
0.0
  0
LINE
  8
0
 62
     0
 10
300.094
 20
110.185
 30
0.0
 11
300.382
 21
109.918
 31
0.0
  0
LINE
  8
0
 62
     0
 10
300.382
 20
109.918
 30
0.0
 11
300.648
 21
109.63
 31
0.0
  0
LINE
  8
0
 62
     0
 10
300.648
 20
109.63
 30
0.0
 11
300.892
 21
109.321
 31
0.0
  0
LINE
  8
0
 62
     0
 10
300.892
 20
109.321
 30
0.0
 11
301.11
 21
108.996
 31
0.0
  0
LINE
  8
0
 62
     0
 10
301.11
 20
108.996
 30
0.0
 11
301.301
 21
108.653
 31
0.0
  0
LINE
  8
0
 62
     0
 10
301.301
 20
108.653
 30
0.0
 11
301.465
 21
108.296
 31
0.0
  0
LINE
  8
0
 62
     0
 10
301.465
 20
108.296
 30
0.0
 11
301.602
 21
107.928
 31
0.0
  0
LINE
  8
0
 62
     0
 10
301.602
 20
107.928
 30
0.0
 11
301.708
 21
107.55
 31
0.0
  0
LINE
  8
0
 62
     0
 10
301.708
 20
107.55
 30
0.0
 11
301.785
 21
107.166
 31
0.0
  0
LINE
  8
0
 62
     0
 10
301.785
 20
107.166
 30
0.0
 11
301.83
 21
106.776
 31
0.0
  0
LINE
  8
0
 62
     0
 10
301.83
 20
106.776
 30
0.0
 11
301.845
 21
106.382
 31
0.0
  0
LINE
  8
0
 62
     0
 10
301.845
 20
106.382
 30
0.0
 11
301.847
 21
5.13182
 31
0.0
  0
LINE
  8
0
 62
     0
 10
301.847
 20
5.13182
 30
0.0
 11
301.83
 21
4.73908
 31
0.0
  0
LINE
  8
0
 62
     0
 10
301.83
 20
4.73908
 30
0.0
 11
301.785
 21
4.34908
 31
0.0
  0
LINE
  8
0
 62
     0
 10
301.785
 20
4.34908
 30
0.0
 11
301.708
 21
3.96462
 31
0.0
  0
LINE
  8
0
 62
     0
 10
301.708
 20
3.96462
 30
0.0
 11
301.602
 21
3.58567
 31
0.0
  0
LINE
  8
0
 62
     0
 10
301.602
 20
3.58567
 30
0.0
 11
301.465
 21
3.21772
 31
0.0
  0
LINE
  8
0
 62
     0
 10
301.465
 20
3.21772
 30
0.0
 11
301.301
 21
2.86219
 31
0.0
  0
LINE
  8
0
 62
     0
 10
301.301
 20
2.86219
 30
0.0
 11
301.11
 21
2.51906
 31
0.0
  0
LINE
  8
0
 62
     0
 10
301.11
 20
2.51906
 30
0.0
 11
300.892
 21
2.19384
 31
0.0
  0
LINE
  8
0
 62
     0
 10
300.892
 20
2.19384
 30
0.0
 11
300.648
 21
1.88378
 31
0.0
  0
LINE
  8
0
 62
     0
 10
300.648
 20
1.88378
 30
0.0
 11
300.382
 21
1.59577
 31
0.0
  0
LINE
  8
0
 62
     0
 10
300.382
 20
1.59577
 30
0.0
 11
300.094
 21
1.32981
 31
0.0
  0
LINE
  8
0
 62
     0
 10
300.094
 20
1.32981
 30
0.0
 11
299.784
 21
1.0859
 31
0.0
  0
LINE
  8
0
 62
     0
 10
299.784
 20
1.0859
 30
0.0
 11
299.459
 21
0.868165
 31
0.0
  0
LINE
  8
0
 62
     0
 10
299.459
 20
0.868165
 30
0.0
 11
299.116
 21
0.676617
 31
0.0
  0
LINE
  8
0
 62
     0
 10
299.116
 20
0.676617
 30
0.0
 11
298.76
 21
0.512632
 31
0.0
  0
LINE
  8
0
 62
     0
 10
298.76
 20
0.512632
 30
0.0
 11
298.392
 21
0.376206
 31
0.0
  0
LINE
  8
0
 62
     0
 10
298.392
 20
0.376206
 30
0.0
 11
298.013
 21
0.270095
 31
0.0
  0
LINE
  8
0
 62
     0
 10
298.013
 20
0.270095
 30
0.0
 11
297.629
 21
0.192925
 31
0.0
  0
LINE
  8
0
 62
     0
 10
297.629
 20
0.192925
 30
0.0
 11
297.239
 21
0.14745
 31
0.0
  0
LINE
  8
0
 62
     0
 10
297.239
 20
0.14745
 30
0.0
 11
296.846
 21
0.130914
 31
0.0
  0
LINE
  8
0
 62
     0
 10
296.846
 20
0.130914
 30
0.0
 11
5.09598
 21
0.132292
 31
0.0
  0
LINE
  8
0
 62
     0
 10
5.09598
 20
0.132292
 30
0.0
 11
4.70186
 21
0.14745
 31
0.0
  0
LINE
  8
0
 62
     0
 10
4.70186
 20
0.14745
 30
0.0
 11
4.3119
 21
0.192925
 31
0.0
  0
LINE
  8
0
 62
     0
 10
4.3119
 20
0.192925
 30
0.0
 11
3.9274
 21
0.270095
 31
0.0
  0
LINE
  8
0
 62
     0
 10
3.9274
 20
0.270095
 30
0.0
 11
3.54983
 21
0.376206
 31
0.0
  0
LINE
  8
0
 62
     0
 10
3.54983
 20
0.376206
 30
0.0
 11
3.18189
 21
0.512632
 31
0.0
  0
LINE
  8
0
 62
     0
 10
3.18189
 20
0.512632
 30
0.0
 11
2.82498
 21
0.676617
 31
0.0
  0
LINE
  8
0
 62
     0
 10
2.82498
 20
0.676617
 30
0.0
 11
2.48185
 21
0.868165
 31
0.0
  0
LINE
  8
0
 62
     0
 10
2.48185
 20
0.868165
 30
0.0
 11
2.15663
 21
1.0859
 31
0.0
  0
LINE
  8
0
 62
     0
 10
2.15663
 20
1.0859
 30
0.0
 11
1.84795
 21
1.32981
 31
0.0
  0
LINE
  8
0
 62
     0
 10
1.84795
 20
1.32981
 30
0.0
 11
1.55994
 21
1.59577
 31
0.0
  0
LINE
  8
0
 62
     0
 10
1.55994
 20
1.59577
 30
0.0
 11
1.2926
 21
1.88378
 31
0.0
  0
LINE
  8
0
 62
     0
 10
1.2926
 20
1.88378
 30
0.0
 11
1.05006
 21
2.19384
 31
0.0
  0
LINE
  8
0
 62
     0
 10
1.05006
 20
2.19384
 30
0.0
 11
0.830957
 21
2.51906
 31
0.0
  0
LINE
  8
0
 62
     0
 10
0.830957
 20
2.51906
 30
0.0
 11
0.63941
 21
2.86219
 31
0.0
  0
LINE
  8
0
 62
     0
 10
0.63941
 20
2.86219
 30
0.0
 11
0.475424
 21
3.21772
 31
0.0
  0
LINE
  8
0
 62
     0
 10
0.475424
 20
3.21772
 30
0.0
 11
0.338998
 21
3.58567
 31
0.0
  0
LINE
  8
0
 62
     0
 10
0.338998
 20
3.58567
 30
0.0
 11
0.232888
 21
3.96462
 31
0.0
  0
LINE
  8
0
 62
     0
 10
0.232888
 20
3.96462
 30
0.0
 11
0.157097
 21
4.34908
 31
0.0
  0
LINE
  8
0
 62
     0
 10
0.157097
 20
4.34908
 30
0.0
 11
0.110243
 21
4.73908
 31
0.0
  0
LINE
  8
0
 62
     0
 10
0.110243
 20
4.73908
 30
0.0
 11
0.0950846
 21
5.13182
 31
0.0
  0
LINE
  8
0
 62
     0
 10
0.0950846
 20
5.13182
 30
0.0
 11
0.0950846
 21
106.382
 31
0.0
  0
LINE
  8
0
 62
     0
 10
0.0950846
 20
106.382
 30
0.0
 11
0.110243
 21
106.776
 31
0.0
  0
LINE
  8
0
 62
     0
 10
0.110243
 20
106.776
 30
0.0
 11
0.157097
 21
107.166
 31
0.0
  0
LINE
  8
0
 62
     0
 10
0.157097
 20
107.166
 30
0.0
 11
0.232888
 21
107.55
 31
0.0
  0
LINE
  8
0
 62
     0
 10
0.232888
 20
107.55
 30
0.0
 11
0.338998
 21
107.928
 31
0.0
  0
LINE
  8
0
 62
     0
 10
0.338998
 20
107.928
 30
0.0
 11
0.475424
 21
108.296
 31
0.0
  0
LINE
  8
0
 62
     0
 10
0.475424
 20
108.296
 30
0.0
 11
0.63941
 21
108.653
 31
0.0
  0
LINE
  8
0
 62
     0
 10
0.63941
 20
108.653
 30
0.0
 11
0.830957
 21
108.996
 31
0.0
  0
LINE
  8
0
 62
     0
 10
0.830957
 20
108.996
 30
0.0
 11
1.05006
 21
109.321
 31
0.0
  0
LINE
  8
0
 62
     0
 10
1.05006
 20
109.321
 30
0.0
 11
1.2926
 21
109.63
 31
0.0
  0
LINE
  8
0
 62
     0
 10
1.2926
 20
109.63
 30
0.0
 11
1.55994
 21
109.918
 31
0.0
  0
LINE
  8
0
 62
     0
 10
1.55994
 20
109.918
 30
0.0
 11
1.84795
 21
110.185
 31
0.0
  0
LINE
  8
0
 62
     0
 10
1.84795
 20
110.185
 30
0.0
 11
2.15663
 21
110.428
 31
0.0
  0
LINE
  8
0
 62
     0
 10
2.15663
 20
110.428
 30
0.0
 11
2.48185
 21
110.647
 31
0.0
  0
LINE
  8
0
 62
     0
 10
2.48185
 20
110.647
 30
0.0
 11
2.82498
 21
110.839
 31
0.0
  0
LINE
  8
0
 62
     0
 10
2.82498
 20
110.839
 30
0.0
 11
3.18189
 21
111.002
 31
0.0
  0
LINE
  8
0
 62
     0
 10
3.18189
 20
111.002
 30
0.0
 11
3.54983
 21
111.139
 31
0.0
  0
LINE
  8
0
 62
     0
 10
3.54983
 20
111.139
 30
0.0
 11
3.9274
 21
111.245
 31
0.0
  0
LINE
  8
0
 62
     0
 10
3.9274
 20
111.245
 30
0.0
 11
4.3119
 21
111.321
 31
0.0
  0
LINE
  8
0
 62
     0
 10
4.3119
 20
111.321
 30
0.0
 11
4.70186
 21
111.368
 31
0.0
  0
LINE
  8
0
 62
     0
 10
4.70186
 20
111.368
 30
0.0
 11
5.09598
 21
111.383
 31
0.0
  0
LINE
  8
0
 62
     0
 10
5.09598
 20
111.383
 30
0.0
 11
296.846
 21
111.383
 31
0.0
  0
LINE
  8
0
 62
     0
 10
3.6008
 20
5.6527
 30
0.0
 11
3.15295
 21
5.42671
 31
0.0
  0
LINE
  8
0
 62
     0
 10
3.15295
 20
5.42671
 30
0.0
 11
2.80017
 21
5.07256
 31
0.0
  0
LINE
  8
0
 62
     0
 10
2.80017
 20
5.07256
 30
0.0
 11
2.57418
 21
4.62608
 31
0.0
  0
LINE
  8
0
 62
     0
 10
2.57418
 20
4.62608
 30
0.0
 11
2.49425
 21
4.13272
 31
0.0
  0
LINE
  8
0
 62
     0
 10
2.49425
 20
4.13272
 30
0.0
 11
2.57418
 21
3.63665
 31
0.0
  0
LINE
  8
0
 62
     0
 10
2.57418
 20
3.63665
 30
0.0
 11
2.80017
 21
3.19154
 31
0.0
  0
LINE
  8
0
 62
     0
 10
2.80017
 20
3.19154
 30
0.0
 11
3.15295
 21
2.83738
 31
0.0
  0
LINE
  8
0
 62
     0
 10
3.15295
 20
2.83738
 30
0.0
 11
3.6008
 21
2.61001
 31
0.0
  0
LINE
  8
0
 62
     0
 10
3.6008
 20
2.61001
 30
0.0
 11
4.09554
 21
2.53284
 31
0.0
  0
LINE
  8
0
 62
     0
 10
4.09554
 20
2.53284
 30
0.0
 11
4.58886
 21
2.61001
 31
0.0
  0
LINE
  8
0
 62
     0
 10
4.58886
 20
2.61001
 30
0.0
 11
5.03534
 21
2.83738
 31
0.0
  0
LINE
  8
0
 62
     0
 10
5.03534
 20
2.83738
 30
0.0
 11
5.38949
 21
3.19154
 31
0.0
  0
LINE
  8
0
 62
     0
 10
5.38949
 20
3.19154
 30
0.0
 11
5.61689
 21
3.63665
 31
0.0
  0
LINE
  8
0
 62
     0
 10
5.61689
 20
3.63665
 30
0.0
 11
5.69542
 21
4.13272
 31
0.0
  0
LINE
  8
0
 62
     0
 10
5.69542
 20
4.13272
 30
0.0
 11
5.61689
 21
4.62608
 31
0.0
  0
LINE
  8
0
 62
     0
 10
5.61689
 20
4.62608
 30
0.0
 11
5.38949
 21
5.07256
 31
0.0
  0
LINE
  8
0
 62
     0
 10
5.38949
 20
5.07256
 30
0.0
 11
5.03534
 21
5.42671
 31
0.0
  0
LINE
  8
0
 62
     0
 10
5.03534
 20
5.42671
 30
0.0
 11
4.58886
 21
5.6527
 31
0.0
  0
LINE
  8
0
 62
     0
 10
4.58886
 20
5.6527
 30
0.0
 11
4.09554
 21
5.73126
 31
0.0
  0
LINE
  8
0
 62
     0
 10
4.09554
 20
5.73126
 30
0.0
 11
3.6008
 21
5.6527
 31
0.0
  0
LINE
  8
0
 62
     0
 10
101.517
 20
5.6527
 30
0.0
 11
101.071
 21
5.42671
 31
0.0
  0
LINE
  8
0
 62
     0
 10
101.071
 20
5.42671
 30
0.0
 11
100.718
 21
5.07256
 31
0.0
  0
LINE
  8
0
 62
     0
 10
100.718
 20
5.07256
 30
0.0
 11
100.491
 21
4.62608
 31
0.0
  0
LINE
  8
0
 62
     0
 10
100.491
 20
4.62608
 30
0.0
 11
100.412
 21
4.13272
 31
0.0
  0
LINE
  8
0
 62
     0
 10
100.412
 20
4.13272
 30
0.0
 11
100.491
 21
3.63665
 31
0.0
  0
LINE
  8
0
 62
     0
 10
100.491
 20
3.63665
 30
0.0
 11
100.718
 21
3.19154
 31
0.0
  0
LINE
  8
0
 62
     0
 10
100.718
 20
3.19154
 30
0.0
 11
101.071
 21
2.83738
 31
0.0
  0
LINE
  8
0
 62
     0
 10
101.071
 20
2.83738
 30
0.0
 11
101.517
 21
2.61001
 31
0.0
  0
LINE
  8
0
 62
     0
 10
101.517
 20
2.61001
 30
0.0
 11
102.012
 21
2.53284
 31
0.0
  0
LINE
  8
0
 62
     0
 10
102.012
 20
2.53284
 30
0.0
 11
102.507
 21
2.61001
 31
0.0
  0
LINE
  8
0
 62
     0
 10
102.507
 20
2.61001
 30
0.0
 11
102.952
 21
2.83738
 31
0.0
  0
LINE
  8
0
 62
     0
 10
102.952
 20
2.83738
 30
0.0
 11
103.306
 21
3.19154
 31
0.0
  0
LINE
  8
0
 62
     0
 10
103.306
 20
3.19154
 30
0.0
 11
103.533
 21
3.63665
 31
0.0
  0
LINE
  8
0
 62
     0
 10
103.533
 20
3.63665
 30
0.0
 11
103.612
 21
4.13272
 31
0.0
  0
LINE
  8
0
 62
     0
 10
103.612
 20
4.13272
 30
0.0
 11
103.533
 21
4.62608
 31
0.0
  0
LINE
  8
0
 62
     0
 10
103.533
 20
4.62608
 30
0.0
 11
103.306
 21
5.07256
 31
0.0
  0
LINE
  8
0
 62
     0
 10
103.306
 20
5.07256
 30
0.0
 11
102.952
 21
5.42671
 31
0.0
  0
LINE
  8
0
 62
     0
 10
102.952
 20
5.42671
 30
0.0
 11
102.507
 21
5.6527
 31
0.0
  0
LINE
  8
0
 62
     0
 10
102.507
 20
5.6527
 30
0.0
 11
102.012
 21
5.73126
 31
0.0
  0
LINE
  8
0
 62
     0
 10
102.012
 20
5.73126
 30
0.0
 11
101.517
 21
5.6527
 31
0.0
  0
LINE
  8
0
 62
     0
 10
199.434
 20
5.6527
 30
0.0
 11
198.989
 21
5.42671
 31
0.0
  0
LINE
  8
0
 62
     0
 10
198.989
 20
5.42671
 30
0.0
 11
198.635
 21
5.07256
 31
0.0
  0
LINE
  8
0
 62
     0
 10
198.635
 20
5.07256
 30
0.0
 11
198.407
 21
4.62608
 31
0.0
  0
LINE
  8
0
 62
     0
 10
198.407
 20
4.62608
 30
0.0
 11
198.33
 21
4.13272
 31
0.0
  0
LINE
  8
0
 62
     0
 10
198.33
 20
4.13272
 30
0.0
 11
198.407
 21
3.63665
 31
0.0
  0
LINE
  8
0
 62
     0
 10
198.407
 20
3.63665
 30
0.0
 11
198.635
 21
3.19154
 31
0.0
  0
LINE
  8
0
 62
     0
 10
198.635
 20
3.19154
 30
0.0
 11
198.989
 21
2.83738
 31
0.0
  0
LINE
  8
0
 62
     0
 10
198.989
 20
2.83738
 30
0.0
 11
199.434
 21
2.61001
 31
0.0
  0
LINE
  8
0
 62
     0
 10
199.434
 20
2.61001
 30
0.0
 11
199.93
 21
2.53284
 31
0.0
  0
LINE
  8
0
 62
     0
 10
199.93
 20
2.53284
 30
0.0
 11
200.423
 21
2.61001
 31
0.0
  0
LINE
  8
0
 62
     0
 10
200.423
 20
2.61001
 30
0.0
 11
200.87
 21
2.83738
 31
0.0
  0
LINE
  8
0
 62
     0
 10
200.87
 20
2.83738
 30
0.0
 11
201.224
 21
3.19154
 31
0.0
  0
LINE
  8
0
 62
     0
 10
201.224
 20
3.19154
 30
0.0
 11
201.45
 21
3.63665
 31
0.0
  0
LINE
  8
0
 62
     0
 10
201.45
 20
3.63665
 30
0.0
 11
201.53
 21
4.13272
 31
0.0
  0
LINE
  8
0
 62
     0
 10
201.53
 20
4.13272
 30
0.0
 11
201.45
 21
4.62608
 31
0.0
  0
LINE
  8
0
 62
     0
 10
201.45
 20
4.62608
 30
0.0
 11
201.224
 21
5.07256
 31
0.0
  0
LINE
  8
0
 62
     0
 10
201.224
 20
5.07256
 30
0.0
 11
200.87
 21
5.42671
 31
0.0
  0
LINE
  8
0
 62
     0
 10
200.87
 20
5.42671
 30
0.0
 11
200.423
 21
5.6527
 31
0.0
  0
LINE
  8
0
 62
     0
 10
200.423
 20
5.6527
 30
0.0
 11
199.93
 21
5.73126
 31
0.0
  0
LINE
  8
0
 62
     0
 10
199.93
 20
5.73126
 30
0.0
 11
199.434
 21
5.6527
 31
0.0
  0
LINE
  8
0
 62
     0
 10
297.352
 20
5.6527
 30
0.0
 11
296.905
 21
5.42671
 31
0.0
  0
LINE
  8
0
 62
     0
 10
296.905
 20
5.42671
 30
0.0
 11
296.551
 21
5.07256
 31
0.0
  0
LINE
  8
0
 62
     0
 10
296.551
 20
5.07256
 30
0.0
 11
296.325
 21
4.62608
 31
0.0
  0
LINE
  8
0
 62
     0
 10
296.325
 20
4.62608
 30
0.0
 11
296.247
 21
4.13272
 31
0.0
  0
LINE
  8
0
 62
     0
 10
296.247
 20
4.13272
 30
0.0
 11
296.325
 21
3.63665
 31
0.0
  0
LINE
  8
0
 62
     0
 10
296.325
 20
3.63665
 30
0.0
 11
296.551
 21
3.19154
 31
0.0
  0
LINE
  8
0
 62
     0
 10
296.551
 20
3.19154
 30
0.0
 11
296.905
 21
2.83738
 31
0.0
  0
LINE
  8
0
 62
     0
 10
296.905
 20
2.83738
 30
0.0
 11
297.352
 21
2.61001
 31
0.0
  0
LINE
  8
0
 62
     0
 10
297.352
 20
2.61001
 30
0.0
 11
297.846
 21
2.53284
 31
0.0
  0
LINE
  8
0
 62
     0
 10
297.846
 20
2.53284
 30
0.0
 11
298.341
 21
2.61001
 31
0.0
  0
LINE
  8
0
 62
     0
 10
298.341
 20
2.61001
 30
0.0
 11
298.786
 21
2.83738
 31
0.0
  0
LINE
  8
0
 62
     0
 10
298.786
 20
2.83738
 30
0.0
 11
299.14
 21
3.19154
 31
0.0
  0
LINE
  8
0
 62
     0
 10
299.14
 20
3.19154
 30
0.0
 11
299.368
 21
3.63665
 31
0.0
  0
LINE
  8
0
 62
     0
 10
299.368
 20
3.63665
 30
0.0
 11
299.446
 21
4.13272
 31
0.0
  0
LINE
  8
0
 62
     0
 10
299.446
 20
4.13272
 30
0.0
 11
299.368
 21
4.62608
 31
0.0
  0
LINE
  8
0
 62
     0
 10
299.368
 20
4.62608
 30
0.0
 11
299.14
 21
5.07256
 31
0.0
  0
LINE
  8
0
 62
     0
 10
299.14
 20
5.07256
 30
0.0
 11
298.786
 21
5.42671
 31
0.0
  0
LINE
  8
0
 62
     0
 10
298.786
 20
5.42671
 30
0.0
 11
298.341
 21
5.6527
 31
0.0
  0
LINE
  8
0
 62
     0
 10
298.341
 20
5.6527
 30
0.0
 11
297.846
 21
5.73126
 31
0.0
  0
LINE
  8
0
 62
     0
 10
297.846
 20
5.73126
 30
0.0
 11
297.352
 21
5.6527
 31
0.0
  0
LINE
  8
0
 62
     0
 10
3.6008
 20
57.2795
 30
0.0
 11
3.15295
 21
57.0509
 31
0.0
  0
LINE
  8
0
 62
     0
 10
3.15295
 20
57.0509
 30
0.0
 11
2.80017
 21
56.6967
 31
0.0
  0
LINE
  8
0
 62
     0
 10
2.80017
 20
56.6967
 30
0.0
 11
2.57418
 21
56.2515
 31
0.0
  0
LINE
  8
0
 62
     0
 10
2.57418
 20
56.2515
 30
0.0
 11
2.49425
 21
55.7569
 31
0.0
  0
LINE
  8
0
 62
     0
 10
2.49425
 20
55.7569
 30
0.0
 11
2.57418
 21
55.2633
 31
0.0
  0
LINE
  8
0
 62
     0
 10
2.57418
 20
55.2633
 30
0.0
 11
2.80017
 21
54.8171
 31
0.0
  0
LINE
  8
0
 62
     0
 10
2.80017
 20
54.8171
 30
0.0
 11
3.15295
 21
54.4629
 31
0.0
  0
LINE
  8
0
 62
     0
 10
3.15295
 20
54.4629
 30
0.0
 11
3.6008
 21
54.2354
 31
0.0
  0
LINE
  8
0
 62
     0
 10
3.6008
 20
54.2354
 30
0.0
 11
4.09554
 21
54.157
 31
0.0
  0
LINE
  8
0
 62
     0
 10
4.09554
 20
54.157
 30
0.0
 11
4.58886
 21
54.2354
 31
0.0
  0
LINE
  8
0
 62
     0
 10
4.58886
 20
54.2354
 30
0.0
 11
5.03534
 21
54.4629
 31
0.0
  0
LINE
  8
0
 62
     0
 10
5.03534
 20
54.4629
 30
0.0
 11
5.38949
 21
54.8171
 31
0.0
  0
LINE
  8
0
 62
     0
 10
5.38949
 20
54.8171
 30
0.0
 11
5.61689
 21
55.2633
 31
0.0
  0
LINE
  8
0
 62
     0
 10
5.61689
 20
55.2633
 30
0.0
 11
5.69542
 21
55.7569
 31
0.0
  0
LINE
  8
0
 62
     0
 10
5.69542
 20
55.7569
 30
0.0
 11
5.61689
 21
56.2515
 31
0.0
  0
LINE
  8
0
 62
     0
 10
5.61689
 20
56.2515
 30
0.0
 11
5.38949
 21
56.6967
 31
0.0
  0
LINE
  8
0
 62
     0
 10
5.38949
 20
56.6967
 30
0.0
 11
5.03534
 21
57.0509
 31
0.0
  0
LINE
  8
0
 62
     0
 10
5.03534
 20
57.0509
 30
0.0
 11
4.58886
 21
57.2795
 31
0.0
  0
LINE
  8
0
 62
     0
 10
4.58886
 20
57.2795
 30
0.0
 11
4.09554
 21
57.3567
 31
0.0
  0
LINE
  8
0
 62
     0
 10
4.09554
 20
57.3567
 30
0.0
 11
3.6008
 21
57.2795
 31
0.0
  0
LINE
  8
0
 62
     0
 10
297.352
 20
57.2795
 30
0.0
 11
296.905
 21
57.0509
 31
0.0
  0
LINE
  8
0
 62
     0
 10
296.905
 20
57.0509
 30
0.0
 11
296.551
 21
56.6967
 31
0.0
  0
LINE
  8
0
 62
     0
 10
296.551
 20
56.6967
 30
0.0
 11
296.325
 21
56.2515
 31
0.0
  0
LINE
  8
0
 62
     0
 10
296.325
 20
56.2515
 30
0.0
 11
296.247
 21
55.7569
 31
0.0
  0
LINE
  8
0
 62
     0
 10
296.247
 20
55.7569
 30
0.0
 11
296.325
 21
55.2633
 31
0.0
  0
LINE
  8
0
 62
     0
 10
296.325
 20
55.2633
 30
0.0
 11
296.551
 21
54.8171
 31
0.0
  0
LINE
  8
0
 62
     0
 10
296.551
 20
54.8171
 30
0.0
 11
296.905
 21
54.4629
 31
0.0
  0
LINE
  8
0
 62
     0
 10
296.905
 20
54.4629
 30
0.0
 11
297.352
 21
54.2354
 31
0.0
  0
LINE
  8
0
 62
     0
 10
297.352
 20
54.2354
 30
0.0
 11
297.846
 21
54.157
 31
0.0
  0
LINE
  8
0
 62
     0
 10
297.846
 20
54.157
 30
0.0
 11
298.341
 21
54.2354
 31
0.0
  0
LINE
  8
0
 62
     0
 10
298.341
 20
54.2354
 30
0.0
 11
298.786
 21
54.4629
 31
0.0
  0
LINE
  8
0
 62
     0
 10
298.786
 20
54.4629
 30
0.0
 11
299.14
 21
54.8171
 31
0.0
  0
LINE
  8
0
 62
     0
 10
299.14
 20
54.8171
 30
0.0
 11
299.368
 21
55.2633
 31
0.0
  0
LINE
  8
0
 62
     0
 10
299.368
 20
55.2633
 30
0.0
 11
299.446
 21
55.7569
 31
0.0
  0
LINE
  8
0
 62
     0
 10
299.446
 20
55.7569
 30
0.0
 11
299.368
 21
56.2515
 31
0.0
  0
LINE
  8
0
 62
     0
 10
299.368
 20
56.2515
 30
0.0
 11
299.14
 21
56.6967
 31
0.0
  0
LINE
  8
0
 62
     0
 10
299.14
 20
56.6967
 30
0.0
 11
298.786
 21
57.0509
 31
0.0
  0
LINE
  8
0
 62
     0
 10
298.786
 20
57.0509
 30
0.0
 11
298.341
 21
57.2795
 31
0.0
  0
LINE
  8
0
 62
     0
 10
298.341
 20
57.2795
 30
0.0
 11
297.846
 21
57.3567
 31
0.0
  0
LINE
  8
0
 62
     0
 10
297.846
 20
57.3567
 30
0.0
 11
297.352
 21
57.2795
 31
0.0
  0
LINE
  8
0
 62
     0
 10
3.6008
 20
108.904
 30
0.0
 11
3.15295
 21
108.678
 31
0.0
  0
LINE
  8
0
 62
     0
 10
3.15295
 20
108.678
 30
0.0
 11
2.80017
 21
108.325
 31
0.0
  0
LINE
  8
0
 62
     0
 10
2.80017
 20
108.325
 30
0.0
 11
2.57418
 21
107.877
 31
0.0
  0
LINE
  8
0
 62
     0
 10
2.57418
 20
107.877
 30
0.0
 11
2.49425
 21
107.382
 31
0.0
  0
LINE
  8
0
 62
     0
 10
2.49425
 20
107.382
 30
0.0
 11
2.57418
 21
106.889
 31
0.0
  0
LINE
  8
0
 62
     0
 10
2.57418
 20
106.889
 30
0.0
 11
2.80017
 21
106.443
 31
0.0
  0
LINE
  8
0
 62
     0
 10
2.80017
 20
106.443
 30
0.0
 11
3.15295
 21
106.088
 31
0.0
  0
LINE
  8
0
 62
     0
 10
3.15295
 20
106.088
 30
0.0
 11
3.6008
 21
105.861
 31
0.0
  0
LINE
  8
0
 62
     0
 10
3.6008
 20
105.861
 30
0.0
 11
4.09554
 21
105.782
 31
0.0
  0
LINE
  8
0
 62
     0
 10
4.09554
 20
105.782
 30
0.0
 11
4.58886
 21
105.861
 31
0.0
  0
LINE
  8
0
 62
     0
 10
4.58886
 20
105.861
 30
0.0
 11
5.03534
 21
106.088
 31
0.0
  0
LINE
  8
0
 62
     0
 10
5.03534
 20
106.088
 30
0.0
 11
5.38949
 21
106.443
 31
0.0
  0
LINE
  8
0
 62
     0
 10
5.38949
 20
106.443
 30
0.0
 11
5.61689
 21
106.889
 31
0.0
  0
LINE
  8
0
 62
     0
 10
5.61689
 20
106.889
 30
0.0
 11
5.69542
 21
107.382
 31
0.0
  0
LINE
  8
0
 62
     0
 10
5.69542
 20
107.382
 30
0.0
 11
5.61689
 21
107.877
 31
0.0
  0
LINE
  8
0
 62
     0
 10
5.61689
 20
107.877
 30
0.0
 11
5.38949
 21
108.325
 31
0.0
  0
LINE
  8
0
 62
     0
 10
5.38949
 20
108.325
 30
0.0
 11
5.03534
 21
108.678
 31
0.0
  0
LINE
  8
0
 62
     0
 10
5.03534
 20
108.678
 30
0.0
 11
4.58886
 21
108.904
 31
0.0
  0
LINE
  8
0
 62
     0
 10
4.58886
 20
108.904
 30
0.0
 11
4.09554
 21
108.982
 31
0.0
  0
LINE
  8
0
 62
     0
 10
4.09554
 20
108.982
 30
0.0
 11
3.6008
 21
108.904
 31
0.0
  0
LINE
  8
0
 62
     0
 10
297.352
 20
108.904
 30
0.0
 11
296.905
 21
108.678
 31
0.0
  0
LINE
  8
0
 62
     0
 10
296.905
 20
108.678
 30
0.0
 11
296.551
 21
108.325
 31
0.0
  0
LINE
  8
0
 62
     0
 10
296.551
 20
108.325
 30
0.0
 11
296.325
 21
107.877
 31
0.0
  0
LINE
  8
0
 62
     0
 10
296.325
 20
107.877
 30
0.0
 11
296.247
 21
107.382
 31
0.0
  0
LINE
  8
0
 62
     0
 10
296.247
 20
107.382
 30
0.0
 11
296.325
 21
106.889
 31
0.0
  0
LINE
  8
0
 62
     0
 10
296.325
 20
106.889
 30
0.0
 11
296.551
 21
106.443
 31
0.0
  0
LINE
  8
0
 62
     0
 10
296.551
 20
106.443
 30
0.0
 11
296.905
 21
106.088
 31
0.0
  0
LINE
  8
0
 62
     0
 10
296.905
 20
106.088
 30
0.0
 11
297.352
 21
105.861
 31
0.0
  0
LINE
  8
0
 62
     0
 10
297.352
 20
105.861
 30
0.0
 11
297.846
 21
105.782
 31
0.0
  0
LINE
  8
0
 62
     0
 10
297.846
 20
105.782
 30
0.0
 11
298.341
 21
105.861
 31
0.0
  0
LINE
  8
0
 62
     0
 10
298.341
 20
105.861
 30
0.0
 11
298.786
 21
106.088
 31
0.0
  0
LINE
  8
0
 62
     0
 10
298.786
 20
106.088
 30
0.0
 11
299.14
 21
106.443
 31
0.0
  0
LINE
  8
0
 62
     0
 10
299.14
 20
106.443
 30
0.0
 11
299.368
 21
106.889
 31
0.0
  0
LINE
  8
0
 62
     0
 10
299.368
 20
106.889
 30
0.0
 11
299.446
 21
107.382
 31
0.0
  0
LINE
  8
0
 62
     0
 10
299.446
 20
107.382
 30
0.0
 11
299.368
 21
107.877
 31
0.0
  0
LINE
  8
0
 62
     0
 10
299.368
 20
107.877
 30
0.0
 11
299.14
 21
108.325
 31
0.0
  0
LINE
  8
0
 62
     0
 10
299.14
 20
108.325
 30
0.0
 11
298.786
 21
108.678
 31
0.0
  0
LINE
  8
0
 62
     0
 10
298.786
 20
108.678
 30
0.0
 11
298.341
 21
108.904
 31
0.0
  0
LINE
  8
0
 62
     0
 10
298.341
 20
108.904
 30
0.0
 11
297.846
 21
108.982
 31
0.0
  0
LINE
  8
0
 62
     0
 10
297.846
 20
108.982
 30
0.0
 11
297.352
 21
108.904
 31
0.0
  0
LINE
  8
0
 62
     0
 10
199.434
 20
108.904
 30
0.0
 11
198.989
 21
108.678
 31
0.0
  0
LINE
  8
0
 62
     0
 10
198.989
 20
108.678
 30
0.0
 11
198.635
 21
108.325
 31
0.0
  0
LINE
  8
0
 62
     0
 10
198.635
 20
108.325
 30
0.0
 11
198.407
 21
107.877
 31
0.0
  0
LINE
  8
0
 62
     0
 10
198.407
 20
107.877
 30
0.0
 11
198.33
 21
107.382
 31
0.0
  0
LINE
  8
0
 62
     0
 10
198.33
 20
107.382
 30
0.0
 11
198.407
 21
106.889
 31
0.0
  0
LINE
  8
0
 62
     0
 10
198.407
 20
106.889
 30
0.0
 11
198.635
 21
106.443
 31
0.0
  0
LINE
  8
0
 62
     0
 10
198.635
 20
106.443
 30
0.0
 11
198.989
 21
106.088
 31
0.0
  0
LINE
  8
0
 62
     0
 10
198.989
 20
106.088
 30
0.0
 11
199.434
 21
105.861
 31
0.0
  0
LINE
  8
0
 62
     0
 10
199.434
 20
105.861
 30
0.0
 11
199.93
 21
105.782
 31
0.0
  0
LINE
  8
0
 62
     0
 10
199.93
 20
105.782
 30
0.0
 11
200.423
 21
105.861
 31
0.0
  0
LINE
  8
0
 62
     0
 10
200.423
 20
105.861
 30
0.0
 11
200.87
 21
106.088
 31
0.0
  0
LINE
  8
0
 62
     0
 10
200.87
 20
106.088
 30
0.0
 11
201.224
 21
106.443
 31
0.0
  0
LINE
  8
0
 62
     0
 10
201.224
 20
106.443
 30
0.0
 11
201.45
 21
106.889
 31
0.0
  0
LINE
  8
0
 62
     0
 10
201.45
 20
106.889
 30
0.0
 11
201.53
 21
107.382
 31
0.0
  0
LINE
  8
0
 62
     0
 10
201.53
 20
107.382
 30
0.0
 11
201.45
 21
107.877
 31
0.0
  0
LINE
  8
0
 62
     0
 10
201.45
 20
107.877
 30
0.0
 11
201.224
 21
108.325
 31
0.0
  0
LINE
  8
0
 62
     0
 10
201.224
 20
108.325
 30
0.0
 11
200.87
 21
108.678
 31
0.0
  0
LINE
  8
0
 62
     0
 10
200.87
 20
108.678
 30
0.0
 11
200.423
 21
108.904
 31
0.0
  0
LINE
  8
0
 62
     0
 10
200.423
 20
108.904
 30
0.0
 11
199.93
 21
108.982
 31
0.0
  0
LINE
  8
0
 62
     0
 10
199.93
 20
108.982
 30
0.0
 11
199.434
 21
108.904
 31
0.0
  0
LINE
  8
0
 62
     0
 10
101.517
 20
108.904
 30
0.0
 11
101.071
 21
108.678
 31
0.0
  0
LINE
  8
0
 62
     0
 10
101.071
 20
108.678
 30
0.0
 11
100.718
 21
108.325
 31
0.0
  0
LINE
  8
0
 62
     0
 10
100.718
 20
108.325
 30
0.0
 11
100.491
 21
107.877
 31
0.0
  0
LINE
  8
0
 62
     0
 10
100.491
 20
107.877
 30
0.0
 11
100.412
 21
107.382
 31
0.0
  0
LINE
  8
0
 62
     0
 10
100.412
 20
107.382
 30
0.0
 11
100.491
 21
106.889
 31
0.0
  0
LINE
  8
0
 62
     0
 10
100.491
 20
106.889
 30
0.0
 11
100.718
 21
106.443
 31
0.0
  0
LINE
  8
0
 62
     0
 10
100.718
 20
106.443
 30
0.0
 11
101.071
 21
106.088
 31
0.0
  0
LINE
  8
0
 62
     0
 10
101.071
 20
106.088
 30
0.0
 11
101.517
 21
105.861
 31
0.0
  0
LINE
  8
0
 62
     0
 10
101.517
 20
105.861
 30
0.0
 11
102.012
 21
105.782
 31
0.0
  0
LINE
  8
0
 62
     0
 10
102.012
 20
105.782
 30
0.0
 11
102.507
 21
105.861
 31
0.0
  0
LINE
  8
0
 62
     0
 10
102.507
 20
105.861
 30
0.0
 11
102.952
 21
106.088
 31
0.0
  0
LINE
  8
0
 62
     0
 10
102.952
 20
106.088
 30
0.0
 11
103.306
 21
106.443
 31
0.0
  0
LINE
  8
0
 62
     0
 10
103.306
 20
106.443
 30
0.0
 11
103.533
 21
106.889
 31
0.0
  0
LINE
  8
0
 62
     0
 10
103.533
 20
106.889
 30
0.0
 11
103.612
 21
107.382
 31
0.0
  0
LINE
  8
0
 62
     0
 10
103.612
 20
107.382
 30
0.0
 11
103.533
 21
107.877
 31
0.0
  0
LINE
  8
0
 62
     0
 10
103.533
 20
107.877
 30
0.0
 11
103.306
 21
108.325
 31
0.0
  0
LINE
  8
0
 62
     0
 10
103.306
 20
108.325
 30
0.0
 11
102.952
 21
108.678
 31
0.0
  0
LINE
  8
0
 62
     0
 10
102.952
 20
108.678
 30
0.0
 11
102.507
 21
108.904
 31
0.0
  0
LINE
  8
0
 62
     0
 10
102.507
 20
108.904
 30
0.0
 11
102.012
 21
108.982
 31
0.0
  0
LINE
  8
0
 62
     0
 10
102.012
 20
108.982
 30
0.0
 11
101.517
 21
108.904
 31
0.0
  0
ENDSEC
  0
EOF
