  0
SECTION
  2
HEADER
  9
$ACADVER
  1
AC1009
  9
$EXTMIN
 10
0.0
 20
0.0
 30
0.0
  9
$EXTMAX
 10
1000.0
 20
1000.0
 30
0.0
  9
$FILLMODE
 70
 0
  9
$SPLFRAME
 70
 1
  0
ENDSEC
  0
SECTION
  2
TABLES
  0
TABLE
  2
LAYER
 70
1
  0
LAYER
  2
0
 70
     0
 62
     7
  6
CONTINUOUS
  0
ENDTAB
  0
ENDSEC
  0
SECTION
  2
ENTITIES
  0
LINE
  8
0
 62
     0
 10
296.846
 20
111.383
 30
0.0
 11
297.239
 21
111.368
 31
0.0
  0
LINE
  8
0
 62
     0
 10
297.239
 20
111.368
 30
0.0
 11
297.629
 21
111.321
 31
0.0
  0
LINE
  8
0
 62
     0
 10
297.629
 20
111.321
 30
0.0
 11
298.013
 21
111.245
 31
0.0
  0
LINE
  8
0
 62
     0
 10
298.013
 20
111.245
 30
0.0
 11
298.392
 21
111.139
 31
0.0
  0
LINE
  8
0
 62
     0
 10
298.392
 20
111.139
 30
0.0
 11
298.76
 21
111.002
 31
0.0
  0
LINE
  8
0
 62
     0
 10
298.76
 20
111.002
 30
0.0
 11
299.116
 21
110.839
 31
0.0
  0
LINE
  8
0
 62
     0
 10
299.116
 20
110.839
 30
0.0
 11
299.459
 21
110.647
 31
0.0
  0
LINE
  8
0
 62
     0
 10
299.459
 20
110.647
 30
0.0
 11
299.784
 21
110.428
 31
0.0
  0
LINE
  8
0
 62
     0
 10
299.784
 20
110.428
 30
0.0
 11
300.094
 21
110.185
 31
0.0
  0
LINE
  8
0
 62
     0
 10
300.094
 20
110.185
 30
0.0
 11
300.382
 21
109.918
 31
0.0
  0
LINE
  8
0
 62
     0
 10
300.382
 20
109.918
 30
0.0
 11
300.648
 21
109.63
 31
0.0
  0
LINE
  8
0
 62
     0
 10
300.648
 20
109.63
 30
0.0
 11
300.892
 21
109.321
 31
0.0
  0
LINE
  8
0
 62
     0
 10
300.892
 20
109.321
 30
0.0
 11
301.11
 21
108.996
 31
0.0
  0
LINE
  8
0
 62
     0
 10
301.11
 20
108.996
 30
0.0
 11
301.301
 21
108.653
 31
0.0
  0
LINE
  8
0
 62
     0
 10
301.301
 20
108.653
 30
0.0
 11
301.465
 21
108.296
 31
0.0
  0
LINE
  8
0
 62
     0
 10
301.465
 20
108.296
 30
0.0
 11
301.602
 21
107.928
 31
0.0
  0
LINE
  8
0
 62
     0
 10
301.602
 20
107.928
 30
0.0
 11
301.708
 21
107.55
 31
0.0
  0
LINE
  8
0
 62
     0
 10
301.708
 20
107.55
 30
0.0
 11
301.785
 21
107.166
 31
0.0
  0
LINE
  8
0
 62
     0
 10
301.785
 20
107.166
 30
0.0
 11
301.83
 21
106.776
 31
0.0
  0
LINE
  8
0
 62
     0
 10
301.83
 20
106.776
 30
0.0
 11
301.845
 21
106.382
 31
0.0
  0
LINE
  8
0
 62
     0
 10
301.845
 20
106.382
 30
0.0
 11
301.847
 21
5.13182
 31
0.0
  0
LINE
  8
0
 62
     0
 10
301.847
 20
5.13182
 30
0.0
 11
301.83
 21
4.73908
 31
0.0
  0
LINE
  8
0
 62
     0
 10
301.83
 20
4.73908
 30
0.0
 11
301.785
 21
4.34908
 31
0.0
  0
LINE
  8
0
 62
     0
 10
301.785
 20
4.34908
 30
0.0
 11
301.708
 21
3.96462
 31
0.0
  0
LINE
  8
0
 62
     0
 10
301.708
 20
3.96462
 30
0.0
 11
301.602
 21
3.58567
 31
0.0
  0
LINE
  8
0
 62
     0
 10
301.602
 20
3.58567
 30
0.0
 11
301.465
 21
3.21772
 31
0.0
  0
LINE
  8
0
 62
     0
 10
301.465
 20
3.21772
 30
0.0
 11
301.301
 21
2.86219
 31
0.0
  0
LINE
  8
0
 62
     0
 10
301.301
 20
2.86219
 30
0.0
 11
301.11
 21
2.51906
 31
0.0
  0
LINE
  8
0
 62
     0
 10
301.11
 20
2.51906
 30
0.0
 11
300.892
 21
2.19384
 31
0.0
  0
LINE
  8
0
 62
     0
 10
300.892
 20
2.19384
 30
0.0
 11
300.648
 21
1.88378
 31
0.0
  0
LINE
  8
0
 62
     0
 10
300.648
 20
1.88378
 30
0.0
 11
300.382
 21
1.59577
 31
0.0
  0
LINE
  8
0
 62
     0
 10
300.382
 20
1.59577
 30
0.0
 11
300.094
 21
1.32981
 31
0.0
  0
LINE
  8
0
 62
     0
 10
300.094
 20
1.32981
 30
0.0
 11
299.784
 21
1.0859
 31
0.0
  0
LINE
  8
0
 62
     0
 10
299.784
 20
1.0859
 30
0.0
 11
299.459
 21
0.868165
 31
0.0
  0
LINE
  8
0
 62
     0
 10
299.459
 20
0.868165
 30
0.0
 11
299.116
 21
0.676617
 31
0.0
  0
LINE
  8
0
 62
     0
 10
299.116
 20
0.676617
 30
0.0
 11
298.76
 21
0.512632
 31
0.0
  0
LINE
  8
0
 62
     0
 10
298.76
 20
0.512632
 30
0.0
 11
298.392
 21
0.376206
 31
0.0
  0
LINE
  8
0
 62
     0
 10
298.392
 20
0.376206
 30
0.0
 11
298.013
 21
0.270095
 31
0.0
  0
LINE
  8
0
 62
     0
 10
298.013
 20
0.270095
 30
0.0
 11
297.629
 21
0.192925
 31
0.0
  0
LINE
  8
0
 62
     0
 10
297.629
 20
0.192925
 30
0.0
 11
297.239
 21
0.14745
 31
0.0
  0
LINE
  8
0
 62
     0
 10
297.239
 20
0.14745
 30
0.0
 11
296.846
 21
0.130914
 31
0.0
  0
LINE
  8
0
 62
     0
 10
296.846
 20
0.130914
 30
0.0
 11
5.09598
 21
0.132292
 31
0.0
  0
LINE
  8
0
 62
     0
 10
5.09598
 20
0.132292
 30
0.0
 11
4.70186
 21
0.14745
 31
0.0
  0
LINE
  8
0
 62
     0
 10
4.70186
 20
0.14745
 30
0.0
 11
4.3119
 21
0.192925
 31
0.0
  0
LINE
  8
0
 62
     0
 10
4.3119
 20
0.192925
 30
0.0
 11
3.9274
 21
0.270095
 31
0.0
  0
LINE
  8
0
 62
     0
 10
3.9274
 20
0.270095
 30
0.0
 11
3.54983
 21
0.376206
 31
0.0
  0
LINE
  8
0
 62
     0
 10
3.54983
 20
0.376206
 30
0.0
 11
3.18189
 21
0.512632
 31
0.0
  0
LINE
  8
0
 62
     0
 10
3.18189
 20
0.512632
 30
0.0
 11
2.82498
 21
0.676617
 31
0.0
  0
LINE
  8
0
 62
     0
 10
2.82498
 20
0.676617
 30
0.0
 11
2.48185
 21
0.868165
 31
0.0
  0
LINE
  8
0
 62
     0
 10
2.48185
 20
0.868165
 30
0.0
 11
2.15663
 21
1.0859
 31
0.0
  0
LINE
  8
0
 62
     0
 10
2.15663
 20
1.0859
 30
0.0
 11
1.84795
 21
1.32981
 31
0.0
  0
LINE
  8
0
 62
     0
 10
1.84795
 20
1.32981
 30
0.0
 11
1.55994
 21
1.59577
 31
0.0
  0
LINE
  8
0
 62
     0
 10
1.55994
 20
1.59577
 30
0.0
 11
1.2926
 21
1.88378
 31
0.0
  0
LINE
  8
0
 62
     0
 10
1.2926
 20
1.88378
 30
0.0
 11
1.05006
 21
2.19384
 31
0.0
  0
LINE
  8
0
 62
     0
 10
1.05006
 20
2.19384
 30
0.0
 11
0.830957
 21
2.51906
 31
0.0
  0
LINE
  8
0
 62
     0
 10
0.830957
 20
2.51906
 30
0.0
 11
0.63941
 21
2.86219
 31
0.0
  0
LINE
  8
0
 62
     0
 10
0.63941
 20
2.86219
 30
0.0
 11
0.475424
 21
3.21772
 31
0.0
  0
LINE
  8
0
 62
     0
 10
0.475424
 20
3.21772
 30
0.0
 11
0.338998
 21
3.58567
 31
0.0
  0
LINE
  8
0
 62
     0
 10
0.338998
 20
3.58567
 30
0.0
 11
0.232888
 21
3.96462
 31
0.0
  0
LINE
  8
0
 62
     0
 10
0.232888
 20
3.96462
 30
0.0
 11
0.157097
 21
4.34908
 31
0.0
  0
LINE
  8
0
 62
     0
 10
0.157097
 20
4.34908
 30
0.0
 11
0.110243
 21
4.73908
 31
0.0
  0
LINE
  8
0
 62
     0
 10
0.110243
 20
4.73908
 30
0.0
 11
0.0950846
 21
5.13182
 31
0.0
  0
LINE
  8
0
 62
     0
 10
0.0950846
 20
5.13182
 30
0.0
 11
0.0950846
 21
106.382
 31
0.0
  0
LINE
  8
0
 62
     0
 10
0.0950846
 20
106.382
 30
0.0
 11
0.110243
 21
106.776
 31
0.0
  0
LINE
  8
0
 62
     0
 10
0.110243
 20
106.776
 30
0.0
 11
0.157097
 21
107.166
 31
0.0
  0
LINE
  8
0
 62
     0
 10
0.157097
 20
107.166
 30
0.0
 11
0.232888
 21
107.55
 31
0.0
  0
LINE
  8
0
 62
     0
 10
0.232888
 20
107.55
 30
0.0
 11
0.338998
 21
107.928
 31
0.0
  0
LINE
  8
0
 62
     0
 10
0.338998
 20
107.928
 30
0.0
 11
0.475424
 21
108.296
 31
0.0
  0
LINE
  8
0
 62
     0
 10
0.475424
 20
108.296
 30
0.0
 11
0.63941
 21
108.653
 31
0.0
  0
LINE
  8
0
 62
     0
 10
0.63941
 20
108.653
 30
0.0
 11
0.830957
 21
108.996
 31
0.0
  0
LINE
  8
0
 62
     0
 10
0.830957
 20
108.996
 30
0.0
 11
1.05006
 21
109.321
 31
0.0
  0
LINE
  8
0
 62
     0
 10
1.05006
 20
109.321
 30
0.0
 11
1.2926
 21
109.63
 31
0.0
  0
LINE
  8
0
 62
     0
 10
1.2926
 20
109.63
 30
0.0
 11
1.55994
 21
109.918
 31
0.0
  0
LINE
  8
0
 62
     0
 10
1.55994
 20
109.918
 30
0.0
 11
1.84795
 21
110.185
 31
0.0
  0
LINE
  8
0
 62
     0
 10
1.84795
 20
110.185
 30
0.0
 11
2.15663
 21
110.428
 31
0.0
  0
LINE
  8
0
 62
     0
 10
2.15663
 20
110.428
 30
0.0
 11
2.48185
 21
110.647
 31
0.0
  0
LINE
  8
0
 62
     0
 10
2.48185
 20
110.647
 30
0.0
 11
2.82498
 21
110.839
 31
0.0
  0
LINE
  8
0
 62
     0
 10
2.82498
 20
110.839
 30
0.0
 11
3.18189
 21
111.002
 31
0.0
  0
LINE
  8
0
 62
     0
 10
3.18189
 20
111.002
 30
0.0
 11
3.54983
 21
111.139
 31
0.0
  0
LINE
  8
0
 62
     0
 10
3.54983
 20
111.139
 30
0.0
 11
3.9274
 21
111.245
 31
0.0
  0
LINE
  8
0
 62
     0
 10
3.9274
 20
111.245
 30
0.0
 11
4.3119
 21
111.321
 31
0.0
  0
LINE
  8
0
 62
     0
 10
4.3119
 20
111.321
 30
0.0
 11
4.70186
 21
111.368
 31
0.0
  0
LINE
  8
0
 62
     0
 10
4.70186
 20
111.368
 30
0.0
 11
5.09598
 21
111.383
 31
0.0
  0
LINE
  8
0
 62
     0
 10
5.09598
 20
111.383
 30
0.0
 11
296.846
 21
111.383
 31
0.0
  0
LINE
  8
0
 62
     0
 10
3.6008
 20
5.6527
 30
0.0
 11
3.15295
 21
5.42671
 31
0.0
  0
LINE
  8
0
 62
     0
 10
3.15295
 20
5.42671
 30
0.0
 11
2.80017
 21
5.07256
 31
0.0
  0
LINE
  8
0
 62
     0
 10
2.80017
 20
5.07256
 30
0.0
 11
2.57418
 21
4.62608
 31
0.0
  0
LINE
  8
0
 62
     0
 10
2.57418
 20
4.62608
 30
0.0
 11
2.49425
 21
4.13272
 31
0.0
  0
LINE
  8
0
 62
     0
 10
2.49425
 20
4.13272
 30
0.0
 11
2.57418
 21
3.63665
 31
0.0
  0
LINE
  8
0
 62
     0
 10
2.57418
 20
3.63665
 30
0.0
 11
2.80017
 21
3.19154
 31
0.0
  0
LINE
  8
0
 62
     0
 10
2.80017
 20
3.19154
 30
0.0
 11
3.15295
 21
2.83738
 31
0.0
  0
LINE
  8
0
 62
     0
 10
3.15295
 20
2.83738
 30
0.0
 11
3.6008
 21
2.61001
 31
0.0
  0
LINE
  8
0
 62
     0
 10
3.6008
 20
2.61001
 30
0.0
 11
4.09554
 21
2.53284
 31
0.0
  0
LINE
  8
0
 62
     0
 10
4.09554
 20
2.53284
 30
0.0
 11
4.58886
 21
2.61001
 31
0.0
  0
LINE
  8
0
 62
     0
 10
4.58886
 20
2.61001
 30
0.0
 11
5.03534
 21
2.83738
 31
0.0
  0
LINE
  8
0
 62
     0
 10
5.03534
 20
2.83738
 30
0.0
 11
5.38949
 21
3.19154
 31
0.0
  0
LINE
  8
0
 62
     0
 10
5.38949
 20
3.19154
 30
0.0
 11
5.61689
 21
3.63665
 31
0.0
  0
LINE
  8
0
 62
     0
 10
5.61689
 20
3.63665
 30
0.0
 11
5.69542
 21
4.13272
 31
0.0
  0
LINE
  8
0
 62
     0
 10
5.69542
 20
4.13272
 30
0.0
 11
5.61689
 21
4.62608
 31
0.0
  0
LINE
  8
0
 62
     0
 10
5.61689
 20
4.62608
 30
0.0
 11
5.38949
 21
5.07256
 31
0.0
  0
LINE
  8
0
 62
     0
 10
5.38949
 20
5.07256
 30
0.0
 11
5.03534
 21
5.42671
 31
0.0
  0
LINE
  8
0
 62
     0
 10
5.03534
 20
5.42671
 30
0.0
 11
4.58886
 21
5.6527
 31
0.0
  0
LINE
  8
0
 62
     0
 10
4.58886
 20
5.6527
 30
0.0
 11
4.09554
 21
5.73126
 31
0.0
  0
LINE
  8
0
 62
     0
 10
4.09554
 20
5.73126
 30
0.0
 11
3.6008
 21
5.6527
 31
0.0
  0
LINE
  8
0
 62
     0
 10
101.517
 20
5.6527
 30
0.0
 11
101.071
 21
5.42671
 31
0.0
  0
LINE
  8
0
 62
     0
 10
101.071
 20
5.42671
 30
0.0
 11
100.718
 21
5.07256
 31
0.0
  0
LINE
  8
0
 62
     0
 10
100.718
 20
5.07256
 30
0.0
 11
100.491
 21
4.62608
 31
0.0
  0
LINE
  8
0
 62
     0
 10
100.491
 20
4.62608
 30
0.0
 11
100.412
 21
4.13272
 31
0.0
  0
LINE
  8
0
 62
     0
 10
100.412
 20
4.13272
 30
0.0
 11
100.491
 21
3.63665
 31
0.0
  0
LINE
  8
0
 62
     0
 10
100.491
 20
3.63665
 30
0.0
 11
100.718
 21
3.19154
 31
0.0
  0
LINE
  8
0
 62
     0
 10
100.718
 20
3.19154
 30
0.0
 11
101.071
 21
2.83738
 31
0.0
  0
LINE
  8
0
 62
     0
 10
101.071
 20
2.83738
 30
0.0
 11
101.517
 21
2.61001
 31
0.0
  0
LINE
  8
0
 62
     0
 10
101.517
 20
2.61001
 30
0.0
 11
102.012
 21
2.53284
 31
0.0
  0
LINE
  8
0
 62
     0
 10
102.012
 20
2.53284
 30
0.0
 11
102.507
 21
2.61001
 31
0.0
  0
LINE
  8
0
 62
     0
 10
102.507
 20
2.61001
 30
0.0
 11
102.952
 21
2.83738
 31
0.0
  0
LINE
  8
0
 62
     0
 10
102.952
 20
2.83738
 30
0.0
 11
103.306
 21
3.19154
 31
0.0
  0
LINE
  8
0
 62
     0
 10
103.306
 20
3.19154
 30
0.0
 11
103.533
 21
3.63665
 31
0.0
  0
LINE
  8
0
 62
     0
 10
103.533
 20
3.63665
 30
0.0
 11
103.612
 21
4.13272
 31
0.0
  0
LINE
  8
0
 62
     0
 10
103.612
 20
4.13272
 30
0.0
 11
103.533
 21
4.62608
 31
0.0
  0
LINE
  8
0
 62
     0
 10
103.533
 20
4.62608
 30
0.0
 11
103.306
 21
5.07256
 31
0.0
  0
LINE
  8
0
 62
     0
 10
103.306
 20
5.07256
 30
0.0
 11
102.952
 21
5.42671
 31
0.0
  0
LINE
  8
0
 62
     0
 10
102.952
 20
5.42671
 30
0.0
 11
102.507
 21
5.6527
 31
0.0
  0
LINE
  8
0
 62
     0
 10
102.507
 20
5.6527
 30
0.0
 11
102.012
 21
5.73126
 31
0.0
  0
LINE
  8
0
 62
     0
 10
102.012
 20
5.73126
 30
0.0
 11
101.517
 21
5.6527
 31
0.0
  0
LINE
  8
0
 62
     0
 10
199.434
 20
5.6527
 30
0.0
 11
198.989
 21
5.42671
 31
0.0
  0
LINE
  8
0
 62
     0
 10
198.989
 20
5.42671
 30
0.0
 11
198.635
 21
5.07256
 31
0.0
  0
LINE
  8
0
 62
     0
 10
198.635
 20
5.07256
 30
0.0
 11
198.407
 21
4.62608
 31
0.0
  0
LINE
  8
0
 62
     0
 10
198.407
 20
4.62608
 30
0.0
 11
198.33
 21
4.13272
 31
0.0
  0
LINE
  8
0
 62
     0
 10
198.33
 20
4.13272
 30
0.0
 11
198.407
 21
3.63665
 31
0.0
  0
LINE
  8
0
 62
     0
 10
198.407
 20
3.63665
 30
0.0
 11
198.635
 21
3.19154
 31
0.0
  0
LINE
  8
0
 62
     0
 10
198.635
 20
3.19154
 30
0.0
 11
198.989
 21
2.83738
 31
0.0
  0
LINE
  8
0
 62
     0
 10
198.989
 20
2.83738
 30
0.0
 11
199.434
 21
2.61001
 31
0.0
  0
LINE
  8
0
 62
     0
 10
199.434
 20
2.61001
 30
0.0
 11
199.93
 21
2.53284
 31
0.0
  0
LINE
  8
0
 62
     0
 10
199.93
 20
2.53284
 30
0.0
 11
200.423
 21
2.61001
 31
0.0
  0
LINE
  8
0
 62
     0
 10
200.423
 20
2.61001
 30
0.0
 11
200.87
 21
2.83738
 31
0.0
  0
LINE
  8
0
 62
     0
 10
200.87
 20
2.83738
 30
0.0
 11
201.224
 21
3.19154
 31
0.0
  0
LINE
  8
0
 62
     0
 10
201.224
 20
3.19154
 30
0.0
 11
201.45
 21
3.63665
 31
0.0
  0
LINE
  8
0
 62
     0
 10
201.45
 20
3.63665
 30
0.0
 11
201.53
 21
4.13272
 31
0.0
  0
LINE
  8
0
 62
     0
 10
201.53
 20
4.13272
 30
0.0
 11
201.45
 21
4.62608
 31
0.0
  0
LINE
  8
0
 62
     0
 10
201.45
 20
4.62608
 30
0.0
 11
201.224
 21
5.07256
 31
0.0
  0
LINE
  8
0
 62
     0
 10
201.224
 20
5.07256
 30
0.0
 11
200.87
 21
5.42671
 31
0.0
  0
LINE
  8
0
 62
     0
 10
200.87
 20
5.42671
 30
0.0
 11
200.423
 21
5.6527
 31
0.0
  0
LINE
  8
0
 62
     0
 10
200.423
 20
5.6527
 30
0.0
 11
199.93
 21
5.73126
 31
0.0
  0
LINE
  8
0
 62
     0
 10
199.93
 20
5.73126
 30
0.0
 11
199.434
 21
5.6527
 31
0.0
  0
LINE
  8
0
 62
     0
 10
297.352
 20
5.6527
 30
0.0
 11
296.905
 21
5.42671
 31
0.0
  0
LINE
  8
0
 62
     0
 10
296.905
 20
5.42671
 30
0.0
 11
296.551
 21
5.07256
 31
0.0
  0
LINE
  8
0
 62
     0
 10
296.551
 20
5.07256
 30
0.0
 11
296.325
 21
4.62608
 31
0.0
  0
LINE
  8
0
 62
     0
 10
296.325
 20
4.62608
 30
0.0
 11
296.247
 21
4.13272
 31
0.0
  0
LINE
  8
0
 62
     0
 10
296.247
 20
4.13272
 30
0.0
 11
296.325
 21
3.63665
 31
0.0
  0
LINE
  8
0
 62
     0
 10
296.325
 20
3.63665
 30
0.0
 11
296.551
 21
3.19154
 31
0.0
  0
LINE
  8
0
 62
     0
 10
296.551
 20
3.19154
 30
0.0
 11
296.905
 21
2.83738
 31
0.0
  0
LINE
  8
0
 62
     0
 10
296.905
 20
2.83738
 30
0.0
 11
297.352
 21
2.61001
 31
0.0
  0
LINE
  8
0
 62
     0
 10
297.352
 20
2.61001
 30
0.0
 11
297.846
 21
2.53284
 31
0.0
  0
LINE
  8
0
 62
     0
 10
297.846
 20
2.53284
 30
0.0
 11
298.341
 21
2.61001
 31
0.0
  0
LINE
  8
0
 62
     0
 10
298.341
 20
2.61001
 30
0.0
 11
298.786
 21
2.83738
 31
0.0
  0
LINE
  8
0
 62
     0
 10
298.786
 20
2.83738
 30
0.0
 11
299.14
 21
3.19154
 31
0.0
  0
LINE
  8
0
 62
     0
 10
299.14
 20
3.19154
 30
0.0
 11
299.368
 21
3.63665
 31
0.0
  0
LINE
  8
0
 62
     0
 10
299.368
 20
3.63665
 30
0.0
 11
299.446
 21
4.13272
 31
0.0
  0
LINE
  8
0
 62
     0
 10
299.446
 20
4.13272
 30
0.0
 11
299.368
 21
4.62608
 31
0.0
  0
LINE
  8
0
 62
     0
 10
299.368
 20
4.62608
 30
0.0
 11
299.14
 21
5.07256
 31
0.0
  0
LINE
  8
0
 62
     0
 10
299.14
 20
5.07256
 30
0.0
 11
298.786
 21
5.42671
 31
0.0
  0
LINE
  8
0
 62
     0
 10
298.786
 20
5.42671
 30
0.0
 11
298.341
 21
5.6527
 31
0.0
  0
LINE
  8
0
 62
     0
 10
298.341
 20
5.6527
 30
0.0
 11
297.846
 21
5.73126
 31
0.0
  0
LINE
  8
0
 62
     0
 10
297.846
 20
5.73126
 30
0.0
 11
297.352
 21
5.6527
 31
0.0
  0
LINE
  8
0
 62
     0
 10
132.063
 20
24.6572
 30
0.0
 11
132.063
 21
19.9567
 31
0.0
  0
LINE
  8
0
 62
     0
 10
132.063
 20
19.9567
 30
0.0
 11
92.4387
 21
19.9567
 31
0.0
  0
LINE
  8
0
 62
     0
 10
92.4387
 20
19.9567
 30
0.0
 11
92.4387
 21
23.1869
 31
0.0
  0
LINE
  8
0
 62
     0
 10
92.4387
 20
23.1869
 30
0.0
 11
85.689
 21
23.1869
 31
0.0
  0
LINE
  8
0
 62
     0
 10
85.689
 20
23.1869
 30
0.0
 11
85.689
 21
19.9567
 31
0.0
  0
LINE
  8
0
 62
     0
 10
85.689
 20
19.9567
 30
0.0
 11
84.8639
 21
19.9567
 31
0.0
  0
LINE
  8
0
 62
     0
 10
84.8639
 20
19.9567
 30
0.0
 11
84.8639
 21
17.1579
 31
0.0
  0
LINE
  8
0
 62
     0
 10
84.8639
 20
17.1579
 30
0.0
 11
85.689
 21
17.1579
 31
0.0
  0
LINE
  8
0
 62
     0
 10
85.689
 20
17.1579
 30
0.0
 11
85.689
 21
10.8879
 31
0.0
  0
LINE
  8
0
 62
     0
 10
85.689
 20
10.8879
 30
0.0
 11
87.413
 21
10.8879
 31
0.0
  0
LINE
  8
0
 62
     0
 10
87.413
 20
10.8879
 30
0.0
 11
87.413
 21
9.6876
 31
0.0
  0
LINE
  8
0
 62
     0
 10
87.413
 20
9.6876
 30
0.0
 11
90.7136
 21
9.6876
 31
0.0
  0
LINE
  8
0
 62
     0
 10
90.7136
 20
9.6876
 30
0.0
 11
90.7136
 21
10.8879
 31
0.0
  0
LINE
  8
0
 62
     0
 10
90.7136
 20
10.8879
 30
0.0
 11
92.4387
 21
10.8879
 31
0.0
  0
LINE
  8
0
 62
     0
 10
92.4387
 20
10.8879
 30
0.0
 11
92.4387
 21
15.3583
 31
0.0
  0
LINE
  8
0
 62
     0
 10
92.4387
 20
15.3583
 30
0.0
 11
132.063
 21
15.3583
 31
0.0
  0
LINE
  8
0
 62
     0
 10
132.063
 20
15.3583
 30
0.0
 11
132.063
 21
10.6577
 31
0.0
  0
LINE
  8
0
 62
     0
 10
132.063
 20
10.6577
 30
0.0
 11
146.064
 21
10.6577
 31
0.0
  0
LINE
  8
0
 62
     0
 10
146.064
 20
10.6577
 30
0.0
 11
146.064
 21
15.3583
 31
0.0
  0
LINE
  8
0
 62
     0
 10
146.064
 20
15.3583
 30
0.0
 11
185.688
 21
15.3583
 31
0.0
  0
LINE
  8
0
 62
     0
 10
185.688
 20
15.3583
 30
0.0
 11
185.688
 21
10.8879
 31
0.0
  0
LINE
  8
0
 62
     0
 10
185.688
 20
10.8879
 30
0.0
 11
187.413
 21
10.8879
 31
0.0
  0
LINE
  8
0
 62
     0
 10
187.413
 20
10.8879
 30
0.0
 11
187.413
 21
9.6876
 31
0.0
  0
LINE
  8
0
 62
     0
 10
187.413
 20
9.6876
 30
0.0
 11
190.713
 21
9.6876
 31
0.0
  0
LINE
  8
0
 62
     0
 10
190.713
 20
9.6876
 30
0.0
 11
190.713
 21
10.8879
 31
0.0
  0
LINE
  8
0
 62
     0
 10
190.713
 20
10.8879
 30
0.0
 11
192.439
 21
10.8879
 31
0.0
  0
LINE
  8
0
 62
     0
 10
192.439
 20
10.8879
 30
0.0
 11
192.439
 21
17.1579
 31
0.0
  0
LINE
  8
0
 62
     0
 10
192.439
 20
17.1579
 30
0.0
 11
193.263
 21
17.1579
 31
0.0
  0
LINE
  8
0
 62
     0
 10
193.263
 20
17.1579
 30
0.0
 11
193.263
 21
19.9567
 31
0.0
  0
LINE
  8
0
 62
     0
 10
193.263
 20
19.9567
 30
0.0
 11
192.439
 21
19.9567
 31
0.0
  0
LINE
  8
0
 62
     0
 10
192.439
 20
19.9567
 30
0.0
 11
192.439
 21
23.1869
 31
0.0
  0
LINE
  8
0
 62
     0
 10
192.439
 20
23.1869
 30
0.0
 11
185.688
 21
23.1869
 31
0.0
  0
LINE
  8
0
 62
     0
 10
185.688
 20
23.1869
 30
0.0
 11
185.688
 21
19.9567
 31
0.0
  0
LINE
  8
0
 62
     0
 10
185.688
 20
19.9567
 30
0.0
 11
146.064
 21
19.9567
 31
0.0
  0
LINE
  8
0
 62
     0
 10
146.064
 20
19.9567
 30
0.0
 11
146.064
 21
24.6572
 31
0.0
  0
LINE
  8
0
 62
     0
 10
146.064
 20
24.6572
 30
0.0
 11
132.063
 21
24.6572
 31
0.0
  0
LINE
  8
0
 62
     0
 10
227.313
 20
24.6572
 30
0.0
 11
241.314
 21
24.6572
 31
0.0
  0
LINE
  8
0
 62
     0
 10
241.314
 20
24.6572
 30
0.0
 11
241.314
 21
10.6577
 31
0.0
  0
LINE
  8
0
 62
     0
 10
241.314
 20
10.6577
 30
0.0
 11
227.313
 21
10.6577
 31
0.0
  0
LINE
  8
0
 62
     0
 10
227.313
 20
10.6577
 30
0.0
 11
227.313
 21
24.6572
 31
0.0
  0
LINE
  8
0
 62
     0
 10
203.502
 20
24.6572
 30
0.0
 11
217.501
 21
24.6572
 31
0.0
  0
LINE
  8
0
 62
     0
 10
217.501
 20
24.6572
 30
0.0
 11
217.501
 21
10.6577
 31
0.0
  0
LINE
  8
0
 62
     0
 10
217.501
 20
10.6577
 30
0.0
 11
203.502
 21
10.6577
 31
0.0
  0
LINE
  8
0
 62
     0
 10
203.502
 20
10.6577
 30
0.0
 11
203.502
 21
24.6572
 31
0.0
  0
LINE
  8
0
 62
     0
 10
60.6266
 20
24.6572
 30
0.0
 11
74.6263
 21
24.6572
 31
0.0
  0
LINE
  8
0
 62
     0
 10
74.6263
 20
24.6572
 30
0.0
 11
74.6263
 21
10.6577
 31
0.0
  0
LINE
  8
0
 62
     0
 10
74.6263
 20
10.6577
 30
0.0
 11
60.6266
 21
10.6577
 31
0.0
  0
LINE
  8
0
 62
     0
 10
60.6266
 20
10.6577
 30
0.0
 11
60.6266
 21
24.6572
 31
0.0
  0
LINE
  8
0
 62
     0
 10
36.8131
 20
24.6572
 30
0.0
 11
50.8138
 21
24.6572
 31
0.0
  0
LINE
  8
0
 62
     0
 10
50.8138
 20
24.6572
 30
0.0
 11
50.8138
 21
10.6577
 31
0.0
  0
LINE
  8
0
 62
     0
 10
50.8138
 20
10.6577
 30
0.0
 11
36.8131
 21
10.6577
 31
0.0
  0
LINE
  8
0
 62
     0
 10
36.8131
 20
10.6577
 30
0.0
 11
36.8131
 21
24.6572
 31
0.0
  0
LINE
  8
0
 62
     0
 10
22.5268
 20
43.7074
 30
0.0
 11
22.5268
 21
39.0066
 31
0.0
  0
LINE
  8
0
 62
     0
 10
22.5268
 20
39.0066
 30
0.0
 11
21.0013
 21
39.0066
 31
0.0
  0
LINE
  8
0
 62
     0
 10
21.0013
 20
39.0066
 30
0.0
 11
21.0013
 21
42.237
 31
0.0
  0
LINE
  8
0
 62
     0
 10
21.0013
 20
42.237
 30
0.0
 11
14.2517
 21
42.237
 31
0.0
  0
LINE
  8
0
 62
     0
 10
14.2517
 20
42.237
 30
0.0
 11
14.2517
 21
39.0066
 31
0.0
  0
LINE
  8
0
 62
     0
 10
14.2517
 20
39.0066
 30
0.0
 11
13.4262
 21
39.0066
 31
0.0
  0
LINE
  8
0
 62
     0
 10
13.4262
 20
39.0066
 30
0.0
 11
13.4262
 21
36.2081
 31
0.0
  0
LINE
  8
0
 62
     0
 10
13.4262
 20
36.2081
 30
0.0
 11
14.2517
 21
36.2081
 31
0.0
  0
LINE
  8
0
 62
     0
 10
14.2517
 20
36.2081
 30
0.0
 11
14.2517
 21
29.9379
 31
0.0
  0
LINE
  8
0
 62
     0
 10
14.2517
 20
29.9379
 30
0.0
 11
15.977
 21
29.9379
 31
0.0
  0
LINE
  8
0
 62
     0
 10
15.977
 20
29.9379
 30
0.0
 11
15.977
 21
28.7376
 31
0.0
  0
LINE
  8
0
 62
     0
 10
15.977
 20
28.7376
 30
0.0
 11
19.276
 21
28.7376
 31
0.0
  0
LINE
  8
0
 62
     0
 10
19.276
 20
28.7376
 30
0.0
 11
19.276
 21
29.9379
 31
0.0
  0
LINE
  8
0
 62
     0
 10
19.276
 20
29.9379
 30
0.0
 11
21.0013
 21
29.9379
 31
0.0
  0
LINE
  8
0
 62
     0
 10
21.0013
 20
29.9379
 30
0.0
 11
21.0013
 21
34.4069
 31
0.0
  0
LINE
  8
0
 62
     0
 10
21.0013
 20
34.4069
 30
0.0
 11
22.5268
 21
34.4069
 31
0.0
  0
LINE
  8
0
 62
     0
 10
22.5268
 20
34.4069
 30
0.0
 11
22.5268
 21
29.7077
 31
0.0
  0
LINE
  8
0
 62
     0
 10
22.5268
 20
29.7077
 30
0.0
 11
36.5263
 21
29.7077
 31
0.0
  0
LINE
  8
0
 62
     0
 10
36.5263
 20
29.7077
 30
0.0
 11
36.5263
 21
34.4069
 31
0.0
  0
LINE
  8
0
 62
     0
 10
36.5263
 20
34.4069
 30
0.0
 11
38.0517
 21
34.4069
 31
0.0
  0
LINE
  8
0
 62
     0
 10
38.0517
 20
34.4069
 30
0.0
 11
38.0517
 21
29.9379
 31
0.0
  0
LINE
  8
0
 62
     0
 10
38.0517
 20
29.9379
 30
0.0
 11
39.7771
 21
29.9379
 31
0.0
  0
LINE
  8
0
 62
     0
 10
39.7771
 20
29.9379
 30
0.0
 11
39.7771
 21
28.7376
 31
0.0
  0
LINE
  8
0
 62
     0
 10
39.7771
 20
28.7376
 30
0.0
 11
43.0759
 21
28.7376
 31
0.0
  0
LINE
  8
0
 62
     0
 10
43.0759
 20
28.7376
 30
0.0
 11
43.0759
 21
29.9379
 31
0.0
  0
LINE
  8
0
 62
     0
 10
43.0759
 20
29.9379
 30
0.0
 11
44.8014
 21
29.9379
 31
0.0
  0
LINE
  8
0
 62
     0
 10
44.8014
 20
29.9379
 30
0.0
 11
44.8014
 21
36.2081
 31
0.0
  0
LINE
  8
0
 62
     0
 10
44.8014
 20
36.2081
 30
0.0
 11
45.6269
 21
36.2081
 31
0.0
  0
LINE
  8
0
 62
     0
 10
45.6269
 20
36.2081
 30
0.0
 11
45.6269
 21
39.0066
 31
0.0
  0
LINE
  8
0
 62
     0
 10
45.6269
 20
39.0066
 30
0.0
 11
44.8014
 21
39.0066
 31
0.0
  0
LINE
  8
0
 62
     0
 10
44.8014
 20
39.0066
 30
0.0
 11
44.8014
 21
42.237
 31
0.0
  0
LINE
  8
0
 62
     0
 10
44.8014
 20
42.237
 30
0.0
 11
38.0517
 21
42.237
 31
0.0
  0
LINE
  8
0
 62
     0
 10
38.0517
 20
42.237
 30
0.0
 11
38.0517
 21
39.0066
 31
0.0
  0
LINE
  8
0
 62
     0
 10
38.0517
 20
39.0066
 30
0.0
 11
36.5263
 21
39.0066
 31
0.0
  0
LINE
  8
0
 62
     0
 10
36.5263
 20
39.0066
 30
0.0
 11
36.5263
 21
43.7074
 31
0.0
  0
LINE
  8
0
 62
     0
 10
36.5263
 20
43.7074
 30
0.0
 11
22.5268
 21
43.7074
 31
0.0
  0
LINE
  8
0
 62
     0
 10
277.32
 20
43.7074
 30
0.0
 11
291.32
 21
43.7074
 31
0.0
  0
LINE
  8
0
 62
     0
 10
291.32
 20
43.7074
 30
0.0
 11
291.32
 21
29.7077
 31
0.0
  0
LINE
  8
0
 62
     0
 10
291.32
 20
29.7077
 30
0.0
 11
277.32
 21
29.7077
 31
0.0
  0
LINE
  8
0
 62
     0
 10
277.32
 20
29.7077
 30
0.0
 11
277.32
 21
43.7074
 31
0.0
  0
LINE
  8
0
 62
     0
 10
251.127
 20
43.7074
 30
0.0
 11
265.126
 21
43.7074
 31
0.0
  0
LINE
  8
0
 62
     0
 10
265.126
 20
43.7074
 30
0.0
 11
265.126
 21
29.7077
 31
0.0
  0
LINE
  8
0
 62
     0
 10
265.126
 20
29.7077
 30
0.0
 11
251.127
 21
29.7077
 31
0.0
  0
LINE
  8
0
 62
     0
 10
251.127
 20
29.7077
 30
0.0
 11
251.127
 21
43.7074
 31
0.0
  0
LINE
  8
0
 62
     0
 10
224.933
 20
43.7074
 30
0.0
 11
238.933
 21
43.7074
 31
0.0
  0
LINE
  8
0
 62
     0
 10
238.933
 20
43.7074
 30
0.0
 11
238.933
 21
29.7077
 31
0.0
  0
LINE
  8
0
 62
     0
 10
238.933
 20
29.7077
 30
0.0
 11
224.933
 21
29.7077
 31
0.0
  0
LINE
  8
0
 62
     0
 10
224.933
 20
29.7077
 30
0.0
 11
224.933
 21
43.7074
 31
0.0
  0
LINE
  8
0
 62
     0
 10
205.883
 20
43.7074
 30
0.0
 11
219.883
 21
43.7074
 31
0.0
  0
LINE
  8
0
 62
     0
 10
219.883
 20
43.7074
 30
0.0
 11
219.883
 21
29.7077
 31
0.0
  0
LINE
  8
0
 62
     0
 10
219.883
 20
29.7077
 30
0.0
 11
205.883
 21
29.7077
 31
0.0
  0
LINE
  8
0
 62
     0
 10
205.883
 20
29.7077
 30
0.0
 11
205.883
 21
43.7074
 31
0.0
  0
LINE
  8
0
 62
     0
 10
186.833
 20
43.7074
 30
0.0
 11
200.833
 21
43.7074
 31
0.0
  0
LINE
  8
0
 62
     0
 10
200.833
 20
43.7074
 30
0.0
 11
200.833
 21
29.7077
 31
0.0
  0
LINE
  8
0
 62
     0
 10
200.833
 20
29.7077
 30
0.0
 11
186.833
 21
29.7077
 31
0.0
  0
LINE
  8
0
 62
     0
 10
186.833
 20
29.7077
 30
0.0
 11
186.833
 21
43.7074
 31
0.0
  0
LINE
  8
0
 62
     0
 10
167.783
 20
43.7074
 30
0.0
 11
181.783
 21
43.7074
 31
0.0
  0
LINE
  8
0
 62
     0
 10
181.783
 20
43.7074
 30
0.0
 11
181.783
 21
29.7077
 31
0.0
  0
LINE
  8
0
 62
     0
 10
181.783
 20
29.7077
 30
0.0
 11
167.783
 21
29.7077
 31
0.0
  0
LINE
  8
0
 62
     0
 10
167.783
 20
29.7077
 30
0.0
 11
167.783
 21
43.7074
 31
0.0
  0
LINE
  8
0
 62
     0
 10
148.733
 20
43.7074
 30
0.0
 11
162.733
 21
43.7074
 31
0.0
  0
LINE
  8
0
 62
     0
 10
162.733
 20
43.7074
 30
0.0
 11
162.733
 21
29.7077
 31
0.0
  0
LINE
  8
0
 62
     0
 10
162.733
 20
29.7077
 30
0.0
 11
148.733
 21
29.7077
 31
0.0
  0
LINE
  8
0
 62
     0
 10
148.733
 20
29.7077
 30
0.0
 11
148.733
 21
43.7074
 31
0.0
  0
LINE
  8
0
 62
     0
 10
129.683
 20
43.7074
 30
0.0
 11
143.683
 21
43.7074
 31
0.0
  0
LINE
  8
0
 62
     0
 10
143.683
 20
43.7074
 30
0.0
 11
143.683
 21
29.7077
 31
0.0
  0
LINE
  8
0
 62
     0
 10
143.683
 20
29.7077
 30
0.0
 11
129.683
 21
29.7077
 31
0.0
  0
LINE
  8
0
 62
     0
 10
129.683
 20
29.7077
 30
0.0
 11
129.683
 21
43.7074
 31
0.0
  0
LINE
  8
0
 62
     0
 10
110.633
 20
43.7074
 30
0.0
 11
124.633
 21
43.7074
 31
0.0
  0
LINE
  8
0
 62
     0
 10
124.633
 20
43.7074
 30
0.0
 11
124.633
 21
29.7077
 31
0.0
  0
LINE
  8
0
 62
     0
 10
124.633
 20
29.7077
 30
0.0
 11
110.633
 21
29.7077
 31
0.0
  0
LINE
  8
0
 62
     0
 10
110.633
 20
29.7077
 30
0.0
 11
110.633
 21
43.7074
 31
0.0
  0
LINE
  8
0
 62
     0
 10
91.5829
 20
43.7074
 30
0.0
 11
105.583
 21
43.7074
 31
0.0
  0
LINE
  8
0
 62
     0
 10
105.583
 20
43.7074
 30
0.0
 11
105.583
 21
29.7077
 31
0.0
  0
LINE
  8
0
 62
     0
 10
105.583
 20
29.7077
 30
0.0
 11
91.5829
 21
29.7077
 31
0.0
  0
LINE
  8
0
 62
     0
 10
91.5829
 20
29.7077
 30
0.0
 11
91.5829
 21
43.7074
 31
0.0
  0
LINE
  8
0
 62
     0
 10
72.5329
 20
43.7074
 30
0.0
 11
86.5325
 21
43.7074
 31
0.0
  0
LINE
  8
0
 62
     0
 10
86.5325
 20
43.7074
 30
0.0
 11
86.5325
 21
29.7077
 31
0.0
  0
LINE
  8
0
 62
     0
 10
86.5325
 20
29.7077
 30
0.0
 11
72.5329
 21
29.7077
 31
0.0
  0
LINE
  8
0
 62
     0
 10
72.5329
 20
29.7077
 30
0.0
 11
72.5329
 21
43.7074
 31
0.0
  0
LINE
  8
0
 62
     0
 10
53.4829
 20
43.7074
 30
0.0
 11
67.4825
 21
43.7074
 31
0.0
  0
LINE
  8
0
 62
     0
 10
67.4825
 20
43.7074
 30
0.0
 11
67.4825
 21
29.7077
 31
0.0
  0
LINE
  8
0
 62
     0
 10
67.4825
 20
29.7077
 30
0.0
 11
53.4829
 21
29.7077
 31
0.0
  0
LINE
  8
0
 62
     0
 10
53.4829
 20
29.7077
 30
0.0
 11
53.4829
 21
43.7074
 31
0.0
  0
LINE
  8
0
 62
     0
 10
265.413
 20
62.7574
 30
0.0
 11
265.413
 21
58.0566
 31
0.0
  0
LINE
  8
0
 62
     0
 10
265.413
 20
58.0566
 30
0.0
 11
263.889
 21
58.0566
 31
0.0
  0
LINE
  8
0
 62
     0
 10
263.889
 20
58.0566
 30
0.0
 11
263.889
 21
61.287
 31
0.0
  0
LINE
  8
0
 62
     0
 10
263.889
 20
61.287
 30
0.0
 11
257.139
 21
61.287
 31
0.0
  0
LINE
  8
0
 62
     0
 10
257.139
 20
61.287
 30
0.0
 11
257.139
 21
58.0566
 31
0.0
  0
LINE
  8
0
 62
     0
 10
257.139
 20
58.0566
 30
0.0
 11
256.314
 21
58.0566
 31
0.0
  0
LINE
  8
0
 62
     0
 10
256.314
 20
58.0566
 30
0.0
 11
256.314
 21
55.2581
 31
0.0
  0
LINE
  8
0
 62
     0
 10
256.314
 20
55.2581
 30
0.0
 11
257.139
 21
55.2581
 31
0.0
  0
LINE
  8
0
 62
     0
 10
257.139
 20
55.2581
 30
0.0
 11
257.139
 21
48.9878
 31
0.0
  0
LINE
  8
0
 62
     0
 10
257.139
 20
48.9878
 30
0.0
 11
258.863
 21
48.9878
 31
0.0
  0
LINE
  8
0
 62
     0
 10
258.863
 20
48.9878
 30
0.0
 11
258.863
 21
47.7876
 31
0.0
  0
LINE
  8
0
 62
     0
 10
258.863
 20
47.7876
 30
0.0
 11
262.164
 21
47.7876
 31
0.0
  0
LINE
  8
0
 62
     0
 10
262.164
 20
47.7876
 30
0.0
 11
262.164
 21
48.9878
 31
0.0
  0
LINE
  8
0
 62
     0
 10
262.164
 20
48.9878
 30
0.0
 11
263.889
 21
48.9878
 31
0.0
  0
LINE
  8
0
 62
     0
 10
263.889
 20
48.9878
 30
0.0
 11
263.889
 21
53.4568
 31
0.0
  0
LINE
  8
0
 62
     0
 10
263.889
 20
53.4568
 30
0.0
 11
265.413
 21
53.4568
 31
0.0
  0
LINE
  8
0
 62
     0
 10
265.413
 20
53.4568
 30
0.0
 11
265.413
 21
48.7578
 31
0.0
  0
LINE
  8
0
 62
     0
 10
265.413
 20
48.7578
 30
0.0
 11
279.414
 21
48.7578
 31
0.0
  0
LINE
  8
0
 62
     0
 10
279.414
 20
48.7578
 30
0.0
 11
279.414
 21
53.4568
 31
0.0
  0
LINE
  8
0
 62
     0
 10
279.414
 20
53.4568
 30
0.0
 11
280.938
 21
53.4568
 31
0.0
  0
LINE
  8
0
 62
     0
 10
280.938
 20
53.4568
 30
0.0
 11
280.938
 21
48.9878
 31
0.0
  0
LINE
  8
0
 62
     0
 10
280.938
 20
48.9878
 30
0.0
 11
282.663
 21
48.9878
 31
0.0
  0
LINE
  8
0
 62
     0
 10
282.663
 20
48.9878
 30
0.0
 11
282.663
 21
47.7876
 31
0.0
  0
LINE
  8
0
 62
     0
 10
282.663
 20
47.7876
 30
0.0
 11
285.963
 21
47.7876
 31
0.0
  0
LINE
  8
0
 62
     0
 10
285.963
 20
47.7876
 30
0.0
 11
285.963
 21
48.9878
 31
0.0
  0
LINE
  8
0
 62
     0
 10
285.963
 20
48.9878
 30
0.0
 11
287.689
 21
48.9878
 31
0.0
  0
LINE
  8
0
 62
     0
 10
287.689
 20
48.9878
 30
0.0
 11
287.689
 21
55.2581
 31
0.0
  0
LINE
  8
0
 62
     0
 10
287.689
 20
55.2581
 30
0.0
 11
288.513
 21
55.2581
 31
0.0
  0
LINE
  8
0
 62
     0
 10
288.513
 20
55.2581
 30
0.0
 11
288.513
 21
58.0566
 31
0.0
  0
LINE
  8
0
 62
     0
 10
288.513
 20
58.0566
 30
0.0
 11
287.689
 21
58.0566
 31
0.0
  0
LINE
  8
0
 62
     0
 10
287.689
 20
58.0566
 30
0.0
 11
287.689
 21
61.287
 31
0.0
  0
LINE
  8
0
 62
     0
 10
287.689
 20
61.287
 30
0.0
 11
280.938
 21
61.287
 31
0.0
  0
LINE
  8
0
 62
     0
 10
280.938
 20
61.287
 30
0.0
 11
280.938
 21
58.0566
 31
0.0
  0
LINE
  8
0
 62
     0
 10
280.938
 20
58.0566
 30
0.0
 11
279.414
 21
58.0566
 31
0.0
  0
LINE
  8
0
 62
     0
 10
279.414
 20
58.0566
 30
0.0
 11
279.414
 21
62.7574
 31
0.0
  0
LINE
  8
0
 62
     0
 10
279.414
 20
62.7574
 30
0.0
 11
265.413
 21
62.7574
 31
0.0
  0
LINE
  8
0
 62
     0
 10
234.458
 20
62.7574
 30
0.0
 11
248.458
 21
62.7574
 31
0.0
  0
LINE
  8
0
 62
     0
 10
248.458
 20
62.7574
 30
0.0
 11
248.458
 21
48.7578
 31
0.0
  0
LINE
  8
0
 62
     0
 10
248.458
 20
48.7578
 30
0.0
 11
234.458
 21
48.7578
 31
0.0
  0
LINE
  8
0
 62
     0
 10
234.458
 20
48.7578
 30
0.0
 11
234.458
 21
62.7574
 31
0.0
  0
LINE
  8
0
 62
     0
 10
215.408
 20
62.7574
 30
0.0
 11
229.408
 21
62.7574
 31
0.0
  0
LINE
  8
0
 62
     0
 10
229.408
 20
62.7574
 30
0.0
 11
229.408
 21
48.7578
 31
0.0
  0
LINE
  8
0
 62
     0
 10
229.408
 20
48.7578
 30
0.0
 11
215.408
 21
48.7578
 31
0.0
  0
LINE
  8
0
 62
     0
 10
215.408
 20
48.7578
 30
0.0
 11
215.408
 21
62.7574
 31
0.0
  0
LINE
  8
0
 62
     0
 10
196.358
 20
62.7574
 30
0.0
 11
210.358
 21
62.7574
 31
0.0
  0
LINE
  8
0
 62
     0
 10
210.358
 20
62.7574
 30
0.0
 11
210.358
 21
48.7578
 31
0.0
  0
LINE
  8
0
 62
     0
 10
210.358
 20
48.7578
 30
0.0
 11
196.358
 21
48.7578
 31
0.0
  0
LINE
  8
0
 62
     0
 10
196.358
 20
48.7578
 30
0.0
 11
196.358
 21
62.7574
 31
0.0
  0
LINE
  8
0
 62
     0
 10
177.308
 20
62.7574
 30
0.0
 11
191.308
 21
62.7574
 31
0.0
  0
LINE
  8
0
 62
     0
 10
191.308
 20
62.7574
 30
0.0
 11
191.308
 21
48.7578
 31
0.0
  0
LINE
  8
0
 62
     0
 10
191.308
 20
48.7578
 30
0.0
 11
177.308
 21
48.7578
 31
0.0
  0
LINE
  8
0
 62
     0
 10
177.308
 20
48.7578
 30
0.0
 11
177.308
 21
62.7574
 31
0.0
  0
LINE
  8
0
 62
     0
 10
158.258
 20
62.7574
 30
0.0
 11
172.258
 21
62.7574
 31
0.0
  0
LINE
  8
0
 62
     0
 10
172.258
 20
62.7574
 30
0.0
 11
172.258
 21
48.7578
 31
0.0
  0
LINE
  8
0
 62
     0
 10
172.258
 20
48.7578
 30
0.0
 11
158.258
 21
48.7578
 31
0.0
  0
LINE
  8
0
 62
     0
 10
158.258
 20
48.7578
 30
0.0
 11
158.258
 21
62.7574
 31
0.0
  0
LINE
  8
0
 62
     0
 10
139.208
 20
62.7574
 30
0.0
 11
153.208
 21
62.7574
 31
0.0
  0
LINE
  8
0
 62
     0
 10
153.208
 20
62.7574
 30
0.0
 11
153.208
 21
48.7578
 31
0.0
  0
LINE
  8
0
 62
     0
 10
153.208
 20
48.7578
 30
0.0
 11
139.208
 21
48.7578
 31
0.0
  0
LINE
  8
0
 62
     0
 10
139.208
 20
48.7578
 30
0.0
 11
139.208
 21
62.7574
 31
0.0
  0
LINE
  8
0
 62
     0
 10
120.158
 20
62.7574
 30
0.0
 11
134.158
 21
62.7574
 31
0.0
  0
LINE
  8
0
 62
     0
 10
134.158
 20
62.7574
 30
0.0
 11
134.158
 21
48.7578
 31
0.0
  0
LINE
  8
0
 62
     0
 10
134.158
 20
48.7578
 30
0.0
 11
120.158
 21
48.7578
 31
0.0
  0
LINE
  8
0
 62
     0
 10
120.158
 20
48.7578
 30
0.0
 11
120.158
 21
62.7574
 31
0.0
  0
LINE
  8
0
 62
     0
 10
101.108
 20
62.7574
 30
0.0
 11
115.108
 21
62.7574
 31
0.0
  0
LINE
  8
0
 62
     0
 10
115.108
 20
62.7574
 30
0.0
 11
115.108
 21
48.7578
 31
0.0
  0
LINE
  8
0
 62
     0
 10
115.108
 20
48.7578
 30
0.0
 11
101.108
 21
48.7578
 31
0.0
  0
LINE
  8
0
 62
     0
 10
101.108
 20
48.7578
 30
0.0
 11
101.108
 21
62.7574
 31
0.0
  0
LINE
  8
0
 62
     0
 10
82.0579
 20
62.7574
 30
0.0
 11
96.0575
 21
62.7574
 31
0.0
  0
LINE
  8
0
 62
     0
 10
96.0575
 20
62.7574
 30
0.0
 11
96.0575
 21
48.7578
 31
0.0
  0
LINE
  8
0
 62
     0
 10
96.0575
 20
48.7578
 30
0.0
 11
82.0579
 21
48.7578
 31
0.0
  0
LINE
  8
0
 62
     0
 10
82.0579
 20
48.7578
 30
0.0
 11
82.0579
 21
62.7574
 31
0.0
  0
LINE
  8
0
 62
     0
 10
63.0079
 20
62.7574
 30
0.0
 11
77.0075
 21
62.7574
 31
0.0
  0
LINE
  8
0
 62
     0
 10
77.0075
 20
62.7574
 30
0.0
 11
77.0075
 21
48.7578
 31
0.0
  0
LINE
  8
0
 62
     0
 10
77.0075
 20
48.7578
 30
0.0
 11
63.0079
 21
48.7578
 31
0.0
  0
LINE
  8
0
 62
     0
 10
63.0079
 20
48.7578
 30
0.0
 11
63.0079
 21
62.7574
 31
0.0
  0
LINE
  8
0
 62
     0
 10
43.9579
 20
62.7574
 30
0.0
 11
57.9575
 21
62.7574
 31
0.0
  0
LINE
  8
0
 62
     0
 10
57.9575
 20
62.7574
 30
0.0
 11
57.9575
 21
48.7578
 31
0.0
  0
LINE
  8
0
 62
     0
 10
57.9575
 20
48.7578
 30
0.0
 11
43.9579
 21
48.7578
 31
0.0
  0
LINE
  8
0
 62
     0
 10
43.9579
 20
48.7578
 30
0.0
 11
43.9579
 21
62.7574
 31
0.0
  0
LINE
  8
0
 62
     0
 10
17.7629
 20
62.7574
 30
0.0
 11
31.7638
 21
62.7574
 31
0.0
  0
LINE
  8
0
 62
     0
 10
31.7638
 20
62.7574
 30
0.0
 11
31.7638
 21
48.7578
 31
0.0
  0
LINE
  8
0
 62
     0
 10
31.7638
 20
48.7578
 30
0.0
 11
17.7629
 21
48.7578
 31
0.0
  0
LINE
  8
0
 62
     0
 10
17.7629
 20
48.7578
 30
0.0
 11
17.7629
 21
62.7574
 31
0.0
  0
LINE
  8
0
 62
     0
 10
3.6008
 20
57.2795
 30
0.0
 11
3.15295
 21
57.0509
 31
0.0
  0
LINE
  8
0
 62
     0
 10
3.15295
 20
57.0509
 30
0.0
 11
2.80017
 21
56.6967
 31
0.0
  0
LINE
  8
0
 62
     0
 10
2.80017
 20
56.6967
 30
0.0
 11
2.57418
 21
56.2515
 31
0.0
  0
LINE
  8
0
 62
     0
 10
2.57418
 20
56.2515
 30
0.0
 11
2.49425
 21
55.7569
 31
0.0
  0
LINE
  8
0
 62
     0
 10
2.49425
 20
55.7569
 30
0.0
 11
2.57418
 21
55.2633
 31
0.0
  0
LINE
  8
0
 62
     0
 10
2.57418
 20
55.2633
 30
0.0
 11
2.80017
 21
54.8171
 31
0.0
  0
LINE
  8
0
 62
     0
 10
2.80017
 20
54.8171
 30
0.0
 11
3.15295
 21
54.4629
 31
0.0
  0
LINE
  8
0
 62
     0
 10
3.15295
 20
54.4629
 30
0.0
 11
3.6008
 21
54.2354
 31
0.0
  0
LINE
  8
0
 62
     0
 10
3.6008
 20
54.2354
 30
0.0
 11
4.09554
 21
54.157
 31
0.0
  0
LINE
  8
0
 62
     0
 10
4.09554
 20
54.157
 30
0.0
 11
4.58886
 21
54.2354
 31
0.0
  0
LINE
  8
0
 62
     0
 10
4.58886
 20
54.2354
 30
0.0
 11
5.03534
 21
54.4629
 31
0.0
  0
LINE
  8
0
 62
     0
 10
5.03534
 20
54.4629
 30
0.0
 11
5.38949
 21
54.8171
 31
0.0
  0
LINE
  8
0
 62
     0
 10
5.38949
 20
54.8171
 30
0.0
 11
5.61689
 21
55.2633
 31
0.0
  0
LINE
  8
0
 62
     0
 10
5.61689
 20
55.2633
 30
0.0
 11
5.69542
 21
55.7569
 31
0.0
  0
LINE
  8
0
 62
     0
 10
5.69542
 20
55.7569
 30
0.0
 11
5.61689
 21
56.2515
 31
0.0
  0
LINE
  8
0
 62
     0
 10
5.61689
 20
56.2515
 30
0.0
 11
5.38949
 21
56.6967
 31
0.0
  0
LINE
  8
0
 62
     0
 10
5.38949
 20
56.6967
 30
0.0
 11
5.03534
 21
57.0509
 31
0.0
  0
LINE
  8
0
 62
     0
 10
5.03534
 20
57.0509
 30
0.0
 11
4.58886
 21
57.2795
 31
0.0
  0
LINE
  8
0
 62
     0
 10
4.58886
 20
57.2795
 30
0.0
 11
4.09554
 21
57.3567
 31
0.0
  0
LINE
  8
0
 62
     0
 10
4.09554
 20
57.3567
 30
0.0
 11
3.6008
 21
57.2795
 31
0.0
  0
LINE
  8
0
 62
     0
 10
297.352
 20
57.2795
 30
0.0
 11
296.905
 21
57.0509
 31
0.0
  0
LINE
  8
0
 62
     0
 10
296.905
 20
57.0509
 30
0.0
 11
296.551
 21
56.6967
 31
0.0
  0
LINE
  8
0
 62
     0
 10
296.551
 20
56.6967
 30
0.0
 11
296.325
 21
56.2515
 31
0.0
  0
LINE
  8
0
 62
     0
 10
296.325
 20
56.2515
 30
0.0
 11
296.247
 21
55.7569
 31
0.0
  0
LINE
  8
0
 62
     0
 10
296.247
 20
55.7569
 30
0.0
 11
296.325
 21
55.2633
 31
0.0
  0
LINE
  8
0
 62
     0
 10
296.325
 20
55.2633
 30
0.0
 11
296.551
 21
54.8171
 31
0.0
  0
LINE
  8
0
 62
     0
 10
296.551
 20
54.8171
 30
0.0
 11
296.905
 21
54.4629
 31
0.0
  0
LINE
  8
0
 62
     0
 10
296.905
 20
54.4629
 30
0.0
 11
297.352
 21
54.2354
 31
0.0
  0
LINE
  8
0
 62
     0
 10
297.352
 20
54.2354
 30
0.0
 11
297.846
 21
54.157
 31
0.0
  0
LINE
  8
0
 62
     0
 10
297.846
 20
54.157
 30
0.0
 11
298.341
 21
54.2354
 31
0.0
  0
LINE
  8
0
 62
     0
 10
298.341
 20
54.2354
 30
0.0
 11
298.786
 21
54.4629
 31
0.0
  0
LINE
  8
0
 62
     0
 10
298.786
 20
54.4629
 30
0.0
 11
299.14
 21
54.8171
 31
0.0
  0
LINE
  8
0
 62
     0
 10
299.14
 20
54.8171
 30
0.0
 11
299.368
 21
55.2633
 31
0.0
  0
LINE
  8
0
 62
     0
 10
299.368
 20
55.2633
 30
0.0
 11
299.446
 21
55.7569
 31
0.0
  0
LINE
  8
0
 62
     0
 10
299.446
 20
55.7569
 30
0.0
 11
299.368
 21
56.2515
 31
0.0
  0
LINE
  8
0
 62
     0
 10
299.368
 20
56.2515
 30
0.0
 11
299.14
 21
56.6967
 31
0.0
  0
LINE
  8
0
 62
     0
 10
299.14
 20
56.6967
 30
0.0
 11
298.786
 21
57.0509
 31
0.0
  0
LINE
  8
0
 62
     0
 10
298.786
 20
57.0509
 30
0.0
 11
298.341
 21
57.2795
 31
0.0
  0
LINE
  8
0
 62
     0
 10
298.341
 20
57.2795
 30
0.0
 11
297.846
 21
57.3567
 31
0.0
  0
LINE
  8
0
 62
     0
 10
297.846
 20
57.3567
 30
0.0
 11
297.352
 21
57.2795
 31
0.0
  0
LINE
  8
0
 62
     0
 10
272.558
 20
81.8074
 30
0.0
 11
286.558
 21
81.8074
 31
0.0
  0
LINE
  8
0
 62
     0
 10
286.558
 20
81.8074
 30
0.0
 11
286.558
 21
67.8078
 31
0.0
  0
LINE
  8
0
 62
     0
 10
286.558
 20
67.8078
 30
0.0
 11
272.558
 21
67.8078
 31
0.0
  0
LINE
  8
0
 62
     0
 10
272.558
 20
67.8078
 30
0.0
 11
272.558
 21
81.8074
 31
0.0
  0
LINE
  8
0
 62
     0
 10
248.745
 20
81.8074
 30
0.0
 11
262.745
 21
81.8074
 31
0.0
  0
LINE
  8
0
 62
     0
 10
262.745
 20
81.8074
 30
0.0
 11
262.745
 21
67.8078
 31
0.0
  0
LINE
  8
0
 62
     0
 10
262.745
 20
67.8078
 30
0.0
 11
248.745
 21
67.8078
 31
0.0
  0
LINE
  8
0
 62
     0
 10
248.745
 20
67.8078
 30
0.0
 11
248.745
 21
81.8074
 31
0.0
  0
LINE
  8
0
 62
     0
 10
229.695
 20
81.8074
 30
0.0
 11
243.695
 21
81.8074
 31
0.0
  0
LINE
  8
0
 62
     0
 10
243.695
 20
81.8074
 30
0.0
 11
243.695
 21
67.8078
 31
0.0
  0
LINE
  8
0
 62
     0
 10
243.695
 20
67.8078
 30
0.0
 11
229.695
 21
67.8078
 31
0.0
  0
LINE
  8
0
 62
     0
 10
229.695
 20
67.8078
 30
0.0
 11
229.695
 21
81.8074
 31
0.0
  0
LINE
  8
0
 62
     0
 10
210.645
 20
81.8074
 30
0.0
 11
224.645
 21
81.8074
 31
0.0
  0
LINE
  8
0
 62
     0
 10
224.645
 20
81.8074
 30
0.0
 11
224.645
 21
67.8078
 31
0.0
  0
LINE
  8
0
 62
     0
 10
224.645
 20
67.8078
 30
0.0
 11
210.645
 21
67.8078
 31
0.0
  0
LINE
  8
0
 62
     0
 10
210.645
 20
67.8078
 30
0.0
 11
210.645
 21
81.8074
 31
0.0
  0
LINE
  8
0
 62
     0
 10
191.595
 20
81.8074
 30
0.0
 11
205.595
 21
81.8074
 31
0.0
  0
LINE
  8
0
 62
     0
 10
205.595
 20
81.8074
 30
0.0
 11
205.595
 21
67.8078
 31
0.0
  0
LINE
  8
0
 62
     0
 10
205.595
 20
67.8078
 30
0.0
 11
191.595
 21
67.8078
 31
0.0
  0
LINE
  8
0
 62
     0
 10
191.595
 20
67.8078
 30
0.0
 11
191.595
 21
81.8074
 31
0.0
  0
LINE
  8
0
 62
     0
 10
172.545
 20
81.8074
 30
0.0
 11
186.545
 21
81.8074
 31
0.0
  0
LINE
  8
0
 62
     0
 10
186.545
 20
81.8074
 30
0.0
 11
186.545
 21
67.8078
 31
0.0
  0
LINE
  8
0
 62
     0
 10
186.545
 20
67.8078
 30
0.0
 11
172.545
 21
67.8078
 31
0.0
  0
LINE
  8
0
 62
     0
 10
172.545
 20
67.8078
 30
0.0
 11
172.545
 21
81.8074
 31
0.0
  0
LINE
  8
0
 62
     0
 10
153.495
 20
81.8074
 30
0.0
 11
167.495
 21
81.8074
 31
0.0
  0
LINE
  8
0
 62
     0
 10
167.495
 20
81.8074
 30
0.0
 11
167.495
 21
67.8078
 31
0.0
  0
LINE
  8
0
 62
     0
 10
167.495
 20
67.8078
 30
0.0
 11
153.495
 21
67.8078
 31
0.0
  0
LINE
  8
0
 62
     0
 10
153.495
 20
67.8078
 30
0.0
 11
153.495
 21
81.8074
 31
0.0
  0
LINE
  8
0
 62
     0
 10
134.445
 20
81.8074
 30
0.0
 11
148.445
 21
81.8074
 31
0.0
  0
LINE
  8
0
 62
     0
 10
148.445
 20
81.8074
 30
0.0
 11
148.445
 21
67.8078
 31
0.0
  0
LINE
  8
0
 62
     0
 10
148.445
 20
67.8078
 30
0.0
 11
134.445
 21
67.8078
 31
0.0
  0
LINE
  8
0
 62
     0
 10
134.445
 20
67.8078
 30
0.0
 11
134.445
 21
81.8074
 31
0.0
  0
LINE
  8
0
 62
     0
 10
115.395
 20
81.8074
 30
0.0
 11
129.395
 21
81.8074
 31
0.0
  0
LINE
  8
0
 62
     0
 10
129.395
 20
81.8074
 30
0.0
 11
129.395
 21
67.8078
 31
0.0
  0
LINE
  8
0
 62
     0
 10
129.395
 20
67.8078
 30
0.0
 11
115.395
 21
67.8078
 31
0.0
  0
LINE
  8
0
 62
     0
 10
115.395
 20
67.8078
 30
0.0
 11
115.395
 21
81.8074
 31
0.0
  0
LINE
  8
0
 62
     0
 10
96.3454
 20
81.8074
 30
0.0
 11
110.345
 21
81.8074
 31
0.0
  0
LINE
  8
0
 62
     0
 10
110.345
 20
81.8074
 30
0.0
 11
110.345
 21
67.8078
 31
0.0
  0
LINE
  8
0
 62
     0
 10
110.345
 20
67.8078
 30
0.0
 11
96.3454
 21
67.8078
 31
0.0
  0
LINE
  8
0
 62
     0
 10
96.3454
 20
67.8078
 30
0.0
 11
96.3454
 21
81.8074
 31
0.0
  0
LINE
  8
0
 62
     0
 10
77.2954
 20
81.8074
 30
0.0
 11
91.295
 21
81.8074
 31
0.0
  0
LINE
  8
0
 62
     0
 10
91.295
 20
81.8074
 30
0.0
 11
91.295
 21
67.8078
 31
0.0
  0
LINE
  8
0
 62
     0
 10
91.295
 20
67.8078
 30
0.0
 11
77.2954
 21
67.8078
 31
0.0
  0
LINE
  8
0
 62
     0
 10
77.2954
 20
67.8078
 30
0.0
 11
77.2954
 21
81.8074
 31
0.0
  0
LINE
  8
0
 62
     0
 10
58.2454
 20
81.8074
 30
0.0
 11
72.245
 21
81.8074
 31
0.0
  0
LINE
  8
0
 62
     0
 10
72.245
 20
81.8074
 30
0.0
 11
72.245
 21
67.8078
 31
0.0
  0
LINE
  8
0
 62
     0
 10
72.245
 20
67.8078
 30
0.0
 11
58.2454
 21
67.8078
 31
0.0
  0
LINE
  8
0
 62
     0
 10
58.2454
 20
67.8078
 30
0.0
 11
58.2454
 21
81.8074
 31
0.0
  0
LINE
  8
0
 62
     0
 10
39.1954
 20
81.8074
 30
0.0
 11
53.195
 21
81.8074
 31
0.0
  0
LINE
  8
0
 62
     0
 10
53.195
 20
81.8074
 30
0.0
 11
53.195
 21
67.8078
 31
0.0
  0
LINE
  8
0
 62
     0
 10
53.195
 20
67.8078
 30
0.0
 11
39.1954
 21
67.8078
 31
0.0
  0
LINE
  8
0
 62
     0
 10
39.1954
 20
67.8078
 30
0.0
 11
39.1954
 21
81.8074
 31
0.0
  0
LINE
  8
0
 62
     0
 10
15.3831
 20
81.8074
 30
0.0
 11
29.3825
 21
81.8074
 31
0.0
  0
LINE
  8
0
 62
     0
 10
29.3825
 20
81.8074
 30
0.0
 11
29.3825
 21
67.8078
 31
0.0
  0
LINE
  8
0
 62
     0
 10
29.3825
 20
67.8078
 30
0.0
 11
15.3831
 21
67.8078
 31
0.0
  0
LINE
  8
0
 62
     0
 10
15.3831
 20
67.8078
 30
0.0
 11
15.3831
 21
81.8074
 31
0.0
  0
LINE
  8
0
 62
     0
 10
277.32
 20
100.858
 30
0.0
 11
291.32
 21
100.858
 31
0.0
  0
LINE
  8
0
 62
     0
 10
291.32
 20
100.858
 30
0.0
 11
291.32
 21
86.8578
 31
0.0
  0
LINE
  8
0
 62
     0
 10
291.32
 20
86.8578
 30
0.0
 11
277.32
 21
86.8578
 31
0.0
  0
LINE
  8
0
 62
     0
 10
277.32
 20
86.8578
 30
0.0
 11
277.32
 21
100.858
 31
0.0
  0
LINE
  8
0
 62
     0
 10
258.27
 20
100.858
 30
0.0
 11
272.27
 21
100.858
 31
0.0
  0
LINE
  8
0
 62
     0
 10
272.27
 20
100.858
 30
0.0
 11
272.27
 21
86.8578
 31
0.0
  0
LINE
  8
0
 62
     0
 10
272.27
 20
86.8578
 30
0.0
 11
258.27
 21
86.8578
 31
0.0
  0
LINE
  8
0
 62
     0
 10
258.27
 20
86.8578
 30
0.0
 11
258.27
 21
100.858
 31
0.0
  0
LINE
  8
0
 62
     0
 10
239.22
 20
100.858
 30
0.0
 11
253.22
 21
100.858
 31
0.0
  0
LINE
  8
0
 62
     0
 10
253.22
 20
100.858
 30
0.0
 11
253.22
 21
86.8578
 31
0.0
  0
LINE
  8
0
 62
     0
 10
253.22
 20
86.8578
 30
0.0
 11
239.22
 21
86.8578
 31
0.0
  0
LINE
  8
0
 62
     0
 10
239.22
 20
86.8578
 30
0.0
 11
239.22
 21
100.858
 31
0.0
  0
LINE
  8
0
 62
     0
 10
220.17
 20
100.858
 30
0.0
 11
234.17
 21
100.858
 31
0.0
  0
LINE
  8
0
 62
     0
 10
234.17
 20
100.858
 30
0.0
 11
234.17
 21
86.8578
 31
0.0
  0
LINE
  8
0
 62
     0
 10
234.17
 20
86.8578
 30
0.0
 11
220.17
 21
86.8578
 31
0.0
  0
LINE
  8
0
 62
     0
 10
220.17
 20
86.8578
 30
0.0
 11
220.17
 21
100.858
 31
0.0
  0
LINE
  8
0
 62
     0
 10
201.12
 20
100.858
 30
0.0
 11
215.12
 21
100.858
 31
0.0
  0
LINE
  8
0
 62
     0
 10
215.12
 20
100.858
 30
0.0
 11
215.12
 21
86.8578
 31
0.0
  0
LINE
  8
0
 62
     0
 10
215.12
 20
86.8578
 30
0.0
 11
201.12
 21
86.8578
 31
0.0
  0
LINE
  8
0
 62
     0
 10
201.12
 20
86.8578
 30
0.0
 11
201.12
 21
100.858
 31
0.0
  0
LINE
  8
0
 62
     0
 10
182.07
 20
100.858
 30
0.0
 11
196.07
 21
100.858
 31
0.0
  0
LINE
  8
0
 62
     0
 10
196.07
 20
100.858
 30
0.0
 11
196.07
 21
86.8578
 31
0.0
  0
LINE
  8
0
 62
     0
 10
196.07
 20
86.8578
 30
0.0
 11
182.07
 21
86.8578
 31
0.0
  0
LINE
  8
0
 62
     0
 10
182.07
 20
86.8578
 30
0.0
 11
182.07
 21
100.858
 31
0.0
  0
LINE
  8
0
 62
     0
 10
163.02
 20
100.858
 30
0.0
 11
177.02
 21
100.858
 31
0.0
  0
LINE
  8
0
 62
     0
 10
177.02
 20
100.858
 30
0.0
 11
177.02
 21
86.8578
 31
0.0
  0
LINE
  8
0
 62
     0
 10
177.02
 20
86.8578
 30
0.0
 11
163.02
 21
86.8578
 31
0.0
  0
LINE
  8
0
 62
     0
 10
163.02
 20
86.8578
 30
0.0
 11
163.02
 21
100.858
 31
0.0
  0
LINE
  8
0
 62
     0
 10
143.97
 20
100.858
 30
0.0
 11
157.97
 21
100.858
 31
0.0
  0
LINE
  8
0
 62
     0
 10
157.97
 20
100.858
 30
0.0
 11
157.97
 21
86.8578
 31
0.0
  0
LINE
  8
0
 62
     0
 10
157.97
 20
86.8578
 30
0.0
 11
143.97
 21
86.8578
 31
0.0
  0
LINE
  8
0
 62
     0
 10
143.97
 20
86.8578
 30
0.0
 11
143.97
 21
100.858
 31
0.0
  0
LINE
  8
0
 62
     0
 10
124.919
 20
100.858
 30
0.0
 11
138.92
 21
100.858
 31
0.0
  0
LINE
  8
0
 62
     0
 10
138.92
 20
100.858
 30
0.0
 11
138.92
 21
86.8578
 31
0.0
  0
LINE
  8
0
 62
     0
 10
138.92
 20
86.8578
 30
0.0
 11
124.919
 21
86.8578
 31
0.0
  0
LINE
  8
0
 62
     0
 10
124.919
 20
86.8578
 30
0.0
 11
124.919
 21
100.858
 31
0.0
  0
LINE
  8
0
 62
     0
 10
105.869
 20
100.858
 30
0.0
 11
119.87
 21
100.858
 31
0.0
  0
LINE
  8
0
 62
     0
 10
119.87
 20
100.858
 30
0.0
 11
119.87
 21
86.8578
 31
0.0
  0
LINE
  8
0
 62
     0
 10
119.87
 20
86.8578
 30
0.0
 11
105.869
 21
86.8578
 31
0.0
  0
LINE
  8
0
 62
     0
 10
105.869
 20
86.8578
 30
0.0
 11
105.869
 21
100.858
 31
0.0
  0
LINE
  8
0
 62
     0
 10
86.8204
 20
100.858
 30
0.0
 11
100.82
 21
100.858
 31
0.0
  0
LINE
  8
0
 62
     0
 10
100.82
 20
100.858
 30
0.0
 11
100.82
 21
86.8578
 31
0.0
  0
LINE
  8
0
 62
     0
 10
100.82
 20
86.8578
 30
0.0
 11
86.8204
 21
86.8578
 31
0.0
  0
LINE
  8
0
 62
     0
 10
86.8204
 20
86.8578
 30
0.0
 11
86.8204
 21
100.858
 31
0.0
  0
LINE
  8
0
 62
     0
 10
67.7704
 20
100.858
 30
0.0
 11
81.77
 21
100.858
 31
0.0
  0
LINE
  8
0
 62
     0
 10
81.77
 20
100.858
 30
0.0
 11
81.77
 21
86.8578
 31
0.0
  0
LINE
  8
0
 62
     0
 10
81.77
 20
86.8578
 30
0.0
 11
67.7704
 21
86.8578
 31
0.0
  0
LINE
  8
0
 62
     0
 10
67.7704
 20
86.8578
 30
0.0
 11
67.7704
 21
100.858
 31
0.0
  0
LINE
  8
0
 62
     0
 10
48.7204
 20
100.858
 30
0.0
 11
62.72
 21
100.858
 31
0.0
  0
LINE
  8
0
 62
     0
 10
62.72
 20
100.858
 30
0.0
 11
62.72
 21
86.8578
 31
0.0
  0
LINE
  8
0
 62
     0
 10
62.72
 20
86.8578
 30
0.0
 11
48.7204
 21
86.8578
 31
0.0
  0
LINE
  8
0
 62
     0
 10
48.7204
 20
86.8578
 30
0.0
 11
48.7204
 21
100.858
 31
0.0
  0
LINE
  8
0
 62
     0
 10
29.6706
 20
100.858
 30
0.0
 11
43.67
 21
100.858
 31
0.0
  0
LINE
  8
0
 62
     0
 10
43.67
 20
100.858
 30
0.0
 11
43.67
 21
86.8578
 31
0.0
  0
LINE
  8
0
 62
     0
 10
43.67
 20
86.8578
 30
0.0
 11
29.6706
 21
86.8578
 31
0.0
  0
LINE
  8
0
 62
     0
 10
29.6706
 20
86.8578
 30
0.0
 11
29.6706
 21
100.858
 31
0.0
  0
LINE
  8
0
 62
     0
 10
10.6192
 20
100.858
 30
0.0
 11
24.62
 21
100.858
 31
0.0
  0
LINE
  8
0
 62
     0
 10
24.62
 20
100.858
 30
0.0
 11
24.62
 21
86.8578
 31
0.0
  0
LINE
  8
0
 62
     0
 10
24.62
 20
86.8578
 30
0.0
 11
10.6192
 21
86.8578
 31
0.0
  0
LINE
  8
0
 62
     0
 10
10.6192
 20
86.8578
 30
0.0
 11
10.6192
 21
100.858
 31
0.0
  0
LINE
  8
0
 62
     0
 10
3.6008
 20
108.904
 30
0.0
 11
3.15295
 21
108.678
 31
0.0
  0
LINE
  8
0
 62
     0
 10
3.15295
 20
108.678
 30
0.0
 11
2.80017
 21
108.325
 31
0.0
  0
LINE
  8
0
 62
     0
 10
2.80017
 20
108.325
 30
0.0
 11
2.57418
 21
107.877
 31
0.0
  0
LINE
  8
0
 62
     0
 10
2.57418
 20
107.877
 30
0.0
 11
2.49425
 21
107.382
 31
0.0
  0
LINE
  8
0
 62
     0
 10
2.49425
 20
107.382
 30
0.0
 11
2.57418
 21
106.889
 31
0.0
  0
LINE
  8
0
 62
     0
 10
2.57418
 20
106.889
 30
0.0
 11
2.80017
 21
106.443
 31
0.0
  0
LINE
  8
0
 62
     0
 10
2.80017
 20
106.443
 30
0.0
 11
3.15295
 21
106.088
 31
0.0
  0
LINE
  8
0
 62
     0
 10
3.15295
 20
106.088
 30
0.0
 11
3.6008
 21
105.861
 31
0.0
  0
LINE
  8
0
 62
     0
 10
3.6008
 20
105.861
 30
0.0
 11
4.09554
 21
105.782
 31
0.0
  0
LINE
  8
0
 62
     0
 10
4.09554
 20
105.782
 30
0.0
 11
4.58886
 21
105.861
 31
0.0
  0
LINE
  8
0
 62
     0
 10
4.58886
 20
105.861
 30
0.0
 11
5.03534
 21
106.088
 31
0.0
  0
LINE
  8
0
 62
     0
 10
5.03534
 20
106.088
 30
0.0
 11
5.38949
 21
106.443
 31
0.0
  0
LINE
  8
0
 62
     0
 10
5.38949
 20
106.443
 30
0.0
 11
5.61689
 21
106.889
 31
0.0
  0
LINE
  8
0
 62
     0
 10
5.61689
 20
106.889
 30
0.0
 11
5.69542
 21
107.382
 31
0.0
  0
LINE
  8
0
 62
     0
 10
5.69542
 20
107.382
 30
0.0
 11
5.61689
 21
107.877
 31
0.0
  0
LINE
  8
0
 62
     0
 10
5.61689
 20
107.877
 30
0.0
 11
5.38949
 21
108.325
 31
0.0
  0
LINE
  8
0
 62
     0
 10
5.38949
 20
108.325
 30
0.0
 11
5.03534
 21
108.678
 31
0.0
  0
LINE
  8
0
 62
     0
 10
5.03534
 20
108.678
 30
0.0
 11
4.58886
 21
108.904
 31
0.0
  0
LINE
  8
0
 62
     0
 10
4.58886
 20
108.904
 30
0.0
 11
4.09554
 21
108.982
 31
0.0
  0
LINE
  8
0
 62
     0
 10
4.09554
 20
108.982
 30
0.0
 11
3.6008
 21
108.904
 31
0.0
  0
LINE
  8
0
 62
     0
 10
297.352
 20
108.904
 30
0.0
 11
296.905
 21
108.678
 31
0.0
  0
LINE
  8
0
 62
     0
 10
296.905
 20
108.678
 30
0.0
 11
296.551
 21
108.325
 31
0.0
  0
LINE
  8
0
 62
     0
 10
296.551
 20
108.325
 30
0.0
 11
296.325
 21
107.877
 31
0.0
  0
LINE
  8
0
 62
     0
 10
296.325
 20
107.877
 30
0.0
 11
296.247
 21
107.382
 31
0.0
  0
LINE
  8
0
 62
     0
 10
296.247
 20
107.382
 30
0.0
 11
296.325
 21
106.889
 31
0.0
  0
LINE
  8
0
 62
     0
 10
296.325
 20
106.889
 30
0.0
 11
296.551
 21
106.443
 31
0.0
  0
LINE
  8
0
 62
     0
 10
296.551
 20
106.443
 30
0.0
 11
296.905
 21
106.088
 31
0.0
  0
LINE
  8
0
 62
     0
 10
296.905
 20
106.088
 30
0.0
 11
297.352
 21
105.861
 31
0.0
  0
LINE
  8
0
 62
     0
 10
297.352
 20
105.861
 30
0.0
 11
297.846
 21
105.782
 31
0.0
  0
LINE
  8
0
 62
     0
 10
297.846
 20
105.782
 30
0.0
 11
298.341
 21
105.861
 31
0.0
  0
LINE
  8
0
 62
     0
 10
298.341
 20
105.861
 30
0.0
 11
298.786
 21
106.088
 31
0.0
  0
LINE
  8
0
 62
     0
 10
298.786
 20
106.088
 30
0.0
 11
299.14
 21
106.443
 31
0.0
  0
LINE
  8
0
 62
     0
 10
299.14
 20
106.443
 30
0.0
 11
299.368
 21
106.889
 31
0.0
  0
LINE
  8
0
 62
     0
 10
299.368
 20
106.889
 30
0.0
 11
299.446
 21
107.382
 31
0.0
  0
LINE
  8
0
 62
     0
 10
299.446
 20
107.382
 30
0.0
 11
299.368
 21
107.877
 31
0.0
  0
LINE
  8
0
 62
     0
 10
299.368
 20
107.877
 30
0.0
 11
299.14
 21
108.325
 31
0.0
  0
LINE
  8
0
 62
     0
 10
299.14
 20
108.325
 30
0.0
 11
298.786
 21
108.678
 31
0.0
  0
LINE
  8
0
 62
     0
 10
298.786
 20
108.678
 30
0.0
 11
298.341
 21
108.904
 31
0.0
  0
LINE
  8
0
 62
     0
 10
298.341
 20
108.904
 30
0.0
 11
297.846
 21
108.982
 31
0.0
  0
LINE
  8
0
 62
     0
 10
297.846
 20
108.982
 30
0.0
 11
297.352
 21
108.904
 31
0.0
  0
LINE
  8
0
 62
     0
 10
199.434
 20
108.904
 30
0.0
 11
198.989
 21
108.678
 31
0.0
  0
LINE
  8
0
 62
     0
 10
198.989
 20
108.678
 30
0.0
 11
198.635
 21
108.325
 31
0.0
  0
LINE
  8
0
 62
     0
 10
198.635
 20
108.325
 30
0.0
 11
198.407
 21
107.877
 31
0.0
  0
LINE
  8
0
 62
     0
 10
198.407
 20
107.877
 30
0.0
 11
198.33
 21
107.382
 31
0.0
  0
LINE
  8
0
 62
     0
 10
198.33
 20
107.382
 30
0.0
 11
198.407
 21
106.889
 31
0.0
  0
LINE
  8
0
 62
     0
 10
198.407
 20
106.889
 30
0.0
 11
198.635
 21
106.443
 31
0.0
  0
LINE
  8
0
 62
     0
 10
198.635
 20
106.443
 30
0.0
 11
198.989
 21
106.088
 31
0.0
  0
LINE
  8
0
 62
     0
 10
198.989
 20
106.088
 30
0.0
 11
199.434
 21
105.861
 31
0.0
  0
LINE
  8
0
 62
     0
 10
199.434
 20
105.861
 30
0.0
 11
199.93
 21
105.782
 31
0.0
  0
LINE
  8
0
 62
     0
 10
199.93
 20
105.782
 30
0.0
 11
200.423
 21
105.861
 31
0.0
  0
LINE
  8
0
 62
     0
 10
200.423
 20
105.861
 30
0.0
 11
200.87
 21
106.088
 31
0.0
  0
LINE
  8
0
 62
     0
 10
200.87
 20
106.088
 30
0.0
 11
201.224
 21
106.443
 31
0.0
  0
LINE
  8
0
 62
     0
 10
201.224
 20
106.443
 30
0.0
 11
201.45
 21
106.889
 31
0.0
  0
LINE
  8
0
 62
     0
 10
201.45
 20
106.889
 30
0.0
 11
201.53
 21
107.382
 31
0.0
  0
LINE
  8
0
 62
     0
 10
201.53
 20
107.382
 30
0.0
 11
201.45
 21
107.877
 31
0.0
  0
LINE
  8
0
 62
     0
 10
201.45
 20
107.877
 30
0.0
 11
201.224
 21
108.325
 31
0.0
  0
LINE
  8
0
 62
     0
 10
201.224
 20
108.325
 30
0.0
 11
200.87
 21
108.678
 31
0.0
  0
LINE
  8
0
 62
     0
 10
200.87
 20
108.678
 30
0.0
 11
200.423
 21
108.904
 31
0.0
  0
LINE
  8
0
 62
     0
 10
200.423
 20
108.904
 30
0.0
 11
199.93
 21
108.982
 31
0.0
  0
LINE
  8
0
 62
     0
 10
199.93
 20
108.982
 30
0.0
 11
199.434
 21
108.904
 31
0.0
  0
LINE
  8
0
 62
     0
 10
101.517
 20
108.904
 30
0.0
 11
101.071
 21
108.678
 31
0.0
  0
LINE
  8
0
 62
     0
 10
101.071
 20
108.678
 30
0.0
 11
100.718
 21
108.325
 31
0.0
  0
LINE
  8
0
 62
     0
 10
100.718
 20
108.325
 30
0.0
 11
100.491
 21
107.877
 31
0.0
  0
LINE
  8
0
 62
     0
 10
100.491
 20
107.877
 30
0.0
 11
100.412
 21
107.382
 31
0.0
  0
LINE
  8
0
 62
     0
 10
100.412
 20
107.382
 30
0.0
 11
100.491
 21
106.889
 31
0.0
  0
LINE
  8
0
 62
     0
 10
100.491
 20
106.889
 30
0.0
 11
100.718
 21
106.443
 31
0.0
  0
LINE
  8
0
 62
     0
 10
100.718
 20
106.443
 30
0.0
 11
101.071
 21
106.088
 31
0.0
  0
LINE
  8
0
 62
     0
 10
101.071
 20
106.088
 30
0.0
 11
101.517
 21
105.861
 31
0.0
  0
LINE
  8
0
 62
     0
 10
101.517
 20
105.861
 30
0.0
 11
102.012
 21
105.782
 31
0.0
  0
LINE
  8
0
 62
     0
 10
102.012
 20
105.782
 30
0.0
 11
102.507
 21
105.861
 31
0.0
  0
LINE
  8
0
 62
     0
 10
102.507
 20
105.861
 30
0.0
 11
102.952
 21
106.088
 31
0.0
  0
LINE
  8
0
 62
     0
 10
102.952
 20
106.088
 30
0.0
 11
103.306
 21
106.443
 31
0.0
  0
LINE
  8
0
 62
     0
 10
103.306
 20
106.443
 30
0.0
 11
103.533
 21
106.889
 31
0.0
  0
LINE
  8
0
 62
     0
 10
103.533
 20
106.889
 30
0.0
 11
103.612
 21
107.382
 31
0.0
  0
LINE
  8
0
 62
     0
 10
103.612
 20
107.382
 30
0.0
 11
103.533
 21
107.877
 31
0.0
  0
LINE
  8
0
 62
     0
 10
103.533
 20
107.877
 30
0.0
 11
103.306
 21
108.325
 31
0.0
  0
LINE
  8
0
 62
     0
 10
103.306
 20
108.325
 30
0.0
 11
102.952
 21
108.678
 31
0.0
  0
LINE
  8
0
 62
     0
 10
102.952
 20
108.678
 30
0.0
 11
102.507
 21
108.904
 31
0.0
  0
LINE
  8
0
 62
     0
 10
102.507
 20
108.904
 30
0.0
 11
102.012
 21
108.982
 31
0.0
  0
LINE
  8
0
 62
     0
 10
102.012
 20
108.982
 30
0.0
 11
101.517
 21
108.904
 31
0.0
  0
ENDSEC
  0
EOF
